<?xml version="1.0" encoding="UTF-8"?>
<!DOCTYPE svg PUBLIC "-//W3C//DTD SVG 1.1//EN" "http://www.w3.org/Graphics/SVG/1.1/DTD/svg11.dtd">
<!-- Creator: CorelDRAW 2018 (64 Bit) -->
<svg xmlns="http://www.w3.org/2000/svg" xml:space="preserve" width="208.345mm" height="94.6281mm" version="1.1" style="shape-rendering:geometricPrecision; text-rendering:geometricPrecision; image-rendering:optimizeQuality; fill-rule:evenodd; clip-rule:evenodd"
viewBox="0 0 20849.17 9469.48"
 xmlns:xlink="http://www.w3.org/1999/xlink">
 <defs>
  <style type="text/css">
   <![CDATA[
    .fil2 {fill:#2F5BBE;fill-rule:nonzero}
    .fil5 {fill:#AE6AAC;fill-rule:nonzero}
    .fil1 {fill:#BEE5FE;fill-rule:nonzero}
    .fil3 {fill:#F3AD47;fill-rule:nonzero}
    .fil0 {fill:#FF65AC;fill-rule:nonzero}
    .fil4 {fill:white;fill-rule:nonzero}
   ]]>
  </style>
 </defs>
 <g id="Camada_x0020_1">
  <metadata id="CorelCorpID_0Corel-Layer"/>
  <g id="_2759533394240">
   <path class="fil0" d="M20849.17 1405.27c0,310.65 -251.84,562.49 -562.49,562.49 -310.65,0 -562.48,-251.84 -562.48,-562.49 0,-310.65 251.83,-562.48 562.48,-562.48 310.65,0 562.49,251.83 562.49,562.48z"/>
   <g>
    <polygon class="fil1" points="20215.03,7733.64 20133.98,7733.64 20133.98,7463.44 20215.03,7463.44 "/>
    <polygon class="fil1" points="20079.94,7787.67 20079.94,7868.74 19809.74,7868.74 19809.74,7787.67 "/>
    <polygon class="fil1" points="20133.98,7922.78 20215.03,7922.78 20215.03,8192.98 20133.98,8192.98 "/>
    <polygon class="fil1" points="20269.08,7868.74 20269.08,7787.67 20539.28,7787.67 20539.28,7868.74 "/>
   </g>
   <g>
    <g>
     <polygon class="fil1" points="19718.03,3756.89 20546.24,3756.89 20546.24,3520.25 19718.03,3520.25 "/>
     <polygon class="fil1" points="18711.02,3165.31 18357.41,3165.31 18357.41,2928.67 18501.65,2928.67 18323.69,2727.55 18856.16,2100.47 19481.4,2100.47 19481.4,1863.83 19057.09,1863.83 19426.89,1428.31 18669.26,1428.31 17728.83,2548.13 17728.83,1745.52 18239.09,1745.52 18239.09,1508.89 17728.83,1508.89 17728.83,1428.31 17104.21,1428.31 17104.21,2455.41 17351.72,2455.41 17351.72,2692.05 17104.21,2692.05 17104.21,4169.69 17728.83,4169.69 17728.83,3006.72 18739.01,4169.69 19599.68,4169.69 "/>
     <path class="fil1" d="M13082.3 1428.31l-578.12 0 -151.92 376.38 326 0 0 236.63 -421.52 0 -310.43 769.05 -273.73 0 0 236.63 178.21 0 -453.19 1122.7 671.26 0 202.66 -548.23 1043.31 0 50.09 135.43 378.18 0 0 236.63 -290.63 0 65.17 176.17 671.12 0 -1106.46 -2741.38zm-598.12 1644.81l0 0 10.03 -26.13 6.58 0 0 -17.18 289.08 -754.21 6.61 0 305.82 797.52 -618.13 0z"/>
     <path class="fil1" d="M15854.15 3604.83c-627.99,0 -903.81,-438.7 -903.81,-807.52 0,-72.99 11.56,-148.83 34.15,-223.58l651.65 0 0 -236.64 -533.98 0c142.1,-195.64 387.26,-343.93 751.98,-343.93 318.93,0 538.35,169.53 538.35,169.53l265.8 -531.72c0,0 -305.69,-252.55 -900.54,-252.55 -362.63,0 -709.76,139.06 -977.2,367.1l323.18 0 0 236.64 -547.09 0c-154.7,203.7 -256.27,446.63 -278.88,709.89l-238.88 0 0 236.63 240.04 0c30.9,318.28 178.41,605.75 396.08,828.21l428.72 0 0 236.63 -131.37 0c233.01,142.97 504.98,226.06 785.39,226.06 594.86,0 900.54,-252.55 900.54,-252.55l-265.8 -531.71c0,0 -219.41,169.52 -538.35,169.52z"/>
     <polygon class="fil1" points="10459.88,1428.31 10459.88,1745.52 10726.07,1745.52 10726.07,1982.16 10459.88,1982.16 10459.88,2521.51 9576.08,2521.51 9576.08,1428.31 8951.34,1428.31 8951.34,1745.52 9306.29,1745.52 9306.29,1982.16 8951.34,1982.16 8951.34,3046.99 8478.08,3046.99 8478.08,3283.62 8951.34,3283.62 8951.34,4169.69 9576.08,4169.69 9576.08,3993.51 10252.81,3993.51 10252.81,3756.89 9576.08,3756.89 9576.08,3069.85 10459.88,3069.85 10459.88,4169.69 11084.72,4169.69 11084.72,1428.31 "/>
    </g>
    <g>
     <g>
      <polygon class="fil2" points="19481.4,3756.89 20309.61,3756.89 20309.61,3520.25 19481.4,3520.25 "/>
      <polygon class="fil2" points="18474.39,3165.31 18120.77,3165.31 18120.77,2928.67 18265.01,2928.67 18087.07,2727.55 18619.52,2100.47 19244.77,2100.47 19244.77,1863.83 18820.45,1863.83 19190.26,1428.31 18432.62,1428.31 17492.21,2548.13 17492.21,1745.52 18002.46,1745.52 18002.46,1508.89 17492.21,1508.89 17492.21,1428.31 16867.59,1428.31 16867.59,2455.41 17115.09,2455.41 17115.09,2692.05 16867.59,2692.05 16867.59,4169.69 17492.21,4169.69 17492.21,3006.72 18502.38,4169.69 19363.05,4169.69 "/>
      <path class="fil2" d="M12845.67 1428.31l-578.12 0 -151.93 376.38 326 0 0 236.63 -421.51 0 -310.44 769.05 -273.73 0 0 236.63 178.22 0 -453.19 1122.7 671.25 0 202.66 -548.23 1043.32 0 50.09 135.43 378.17 0 0 236.63 -290.62 0 65.17 176.17 671.12 0 -1106.46 -2741.38zm-598.12 1644.81l0 0 10.03 -26.13 6.58 0 0 -17.18 289.08 -754.21 6.61 0 305.82 797.52 -618.13 0z"/>
      <path class="fil2" d="M15617.52 3604.83c-627.98,0 -903.8,-438.7 -903.8,-807.52 0,-72.99 11.55,-148.83 34.15,-223.58l651.65 0 0 -236.64 -533.99 0c142.11,-195.64 387.27,-343.93 751.98,-343.93 318.94,0 538.36,169.53 538.36,169.53l265.79 -531.72c0,0 -305.68,-252.55 -900.53,-252.55 -362.64,0 -709.76,139.06 -977.2,367.1l323.17 0 0 236.64 -547.08 0c-154.7,203.7 -256.27,446.63 -278.88,709.89l-238.89 0 0 236.63 240.04 0c30.91,318.28 178.42,605.75 396.08,828.21l428.72 0 0 236.63 -131.37 0c233.02,142.97 504.98,226.06 785.4,226.06 594.86,0 900.53,-252.55 900.53,-252.55l-265.79 -531.71c0,0 -219.41,169.52 -538.36,169.52z"/>
      <polygon class="fil2" points="10223.25,1428.31 10223.25,1745.52 10489.45,1745.52 10489.45,1982.16 10223.25,1982.16 10223.25,2521.51 9339.45,2521.51 9339.45,1428.31 8714.72,1428.31 8714.72,1745.52 9069.66,1745.52 9069.66,1982.16 8714.72,1982.16 8714.72,3046.99 8241.45,3046.99 8241.45,3283.62 8714.72,3283.62 8714.72,4169.69 9339.45,4169.69 9339.45,3993.51 10016.18,3993.51 10016.18,3756.89 9339.45,3756.89 9339.45,3069.85 10223.25,3069.85 10223.25,4169.69 10848.1,4169.69 10848.1,1428.31 "/>
     </g>
    </g>
   </g>
   <g>
    <g>
     <polygon class="fil1" points="10555.56,5077.74 10555.56,4528.71 8968.34,4528.71 8968.34,4674.97 9225.12,4674.97 9225.12,4910.4 8968.34,4910.4 8968.34,5213.09 8619.73,5213.09 8619.73,5448.52 8968.34,5448.52 8968.34,6390.22 9225.12,6390.22 9225.12,6625.65 8968.34,6625.65 8968.34,7273.9 9593.89,7273.9 9593.89,6172.5 10482.35,6172.5 10482.35,5623.46 9593.89,5623.46 9593.89,5077.74 "/>
     <path class="fil1" d="M19612.5 5077.74l0 -549.03 -1929.94 0 0 549.03 652.18 0 0 1682.43 -331.62 0 0 235.43 331.62 0 0 278.31 625.58 0 0 -1455.43 287.18 0 0 -235.43 -287.18 0 0 -505.31 652.18 0zm-802.21 -402.76l0 0 538.12 0 0 235.43 -538.12 0 0 -235.43z"/>
     <path class="fil1" d="M16926.89 6222.06l-245.26 0c-46.66,-115.68 -127.95,-217.08 -225.92,-302.69l-537.79 0 0 -235.43 149.97 0c-306.31,-130.38 -558.08,-239.19 -558.08,-389.9 0,-149.74 113.14,-246.23 326.11,-246.23 282.82,0 555.68,189.65 555.68,189.65l252.9 -499.11c0,0 -352.71,-259.55 -851.84,-259.55 -442.57,0 -895.1,326.1 -895.1,838.54 0,10.17 0.79,20.2 1.28,30.28l-124.41 0 0 235.43 181.92 0c80.41,176.16 240.62,329.33 463.63,439.72 326.08,163.05 618.92,252.9 618.92,452.54 0,256.22 -259.56,269.54 -395.97,269.54 -306.14,0 -672.15,-309.46 -672.15,-309.46l-93.2 156.63 132.28 0 0 235.43 -272.36 0 -79.53 133.67c0,0 389.32,362.7 1031.53,362.7 530.49,0 1024.8,-225.41 1034.39,-866.32l203.01 0 0 -235.43z"/>
     <g>
      <polygon class="fil1" points="13423.65,4641.34 13423.65,4528.71 11853.09,4528.71 11853.09,5549.41 11579.36,5549.41 11579.36,5784.83 11853.09,5784.83 11853.09,6894.7 12151.11,6894.7 12151.11,7130.13 11853.09,7130.13 11853.09,7273.9 13423.65,7273.9 13423.65,6724.87 12478.63,6724.87 12478.63,6659.28 12478.63,6423.85 12478.63,6172.5 13383.74,6172.5 13383.74,6020.26 13059.18,6020.26 13059.18,5784.83 13383.74,5784.83 13383.74,5623.46 12478.63,5623.46 12478.63,5077.74 13423.65,5077.74 13423.65,4876.76 13597.29,4876.76 13597.29,4641.34 "/>
     </g>
    </g>
    <g>
     <g>
      <polygon class="fil2" points="10320.14,5077.74 10320.14,4528.71 8732.92,4528.71 8732.92,4674.97 8989.69,4674.97 8989.69,4910.4 8732.92,4910.4 8732.92,5213.09 8384.31,5213.09 8384.31,5448.52 8732.92,5448.52 8732.92,6390.22 8989.69,6390.22 8989.69,6625.65 8732.92,6625.65 8732.92,7273.9 9358.46,7273.9 9358.46,6172.5 10246.93,6172.5 10246.93,5623.46 9358.46,5623.46 9358.46,5077.74 "/>
      <path class="fil2" d="M19377.07 5077.74l0 -549.03 -1929.94 0 0 549.03 652.18 0 0 1682.43 -331.62 0 0 235.43 331.62 0 0 278.31 625.58 0 0 -1455.43 287.19 0 0 -235.43 -287.19 0 0 -505.31 652.18 0zm-802.21 -402.76l0 0 538.12 0 0 235.43 -538.12 0 0 -235.43z"/>
      <path class="fil2" d="M16691.46 6222.06l-245.26 0c-46.66,-115.68 -127.95,-217.08 -225.92,-302.69l-537.79 0 0 -235.43 149.97 0c-306.31,-130.38 -558.08,-239.19 -558.08,-389.9 0,-149.74 113.15,-246.23 326.11,-246.23 282.82,0 555.68,189.65 555.68,189.65l252.9 -499.11c0,0 -352.71,-259.55 -851.84,-259.55 -442.57,0 -895.1,326.1 -895.1,838.54 0,10.17 0.79,20.2 1.28,30.28l-124.41 0 0 235.43 181.92 0c80.41,176.16 240.62,329.33 463.63,439.72 326.08,163.05 618.92,252.9 618.92,452.54 0,256.22 -259.56,269.54 -395.97,269.54 -306.14,0 -672.15,-309.46 -672.15,-309.46l-93.2 156.63 132.28 0 0 235.43 -272.36 0 -79.53 133.67c0,0 389.32,362.7 1031.53,362.7 530.49,0 1024.8,-225.41 1034.39,-866.32l203.01 0 0 -235.43z"/>
      <g>
       <polygon class="fil2" points="13188.23,4641.34 13188.23,4528.71 11617.66,4528.71 11617.66,5549.41 11343.94,5549.41 11343.94,5784.83 11617.66,5784.83 11617.66,6894.7 11915.68,6894.7 11915.68,7130.13 11617.66,7130.13 11617.66,7273.9 13188.23,7273.9 13188.23,6724.87 12243.2,6724.87 12243.2,6659.28 12243.2,6423.85 12243.2,6172.5 13148.32,6172.5 13148.32,6020.26 12823.75,6020.26 12823.75,5784.83 13148.32,5784.83 13148.32,5623.46 12243.2,5623.46 12243.2,5077.74 13188.23,5077.74 13188.23,4876.76 13361.87,4876.76 13361.87,4641.34 "/>
      </g>
     </g>
    </g>
   </g>
   <g>
    <polygon class="fil3" points="13239.1,9077.37 8725.05,9077.37 8725.05,7852.99 13795.64,7852.99 "/>
    <polygon class="fil0" points="13652.69,9077.37 13485.74,9077.37 14042.28,7852.99 14209.24,7852.99 "/>
    <polygon class="fil0" points="14034.65,9077.37 13867.68,9077.37 14424.23,7852.99 14591.19,7852.99 "/>
    <polygon class="fil0" points="14416.6,9077.37 14249.64,9077.37 14806.19,7852.99 14973.14,7852.99 "/>
    <g>
     <path class="fil4" d="M9685.97 8224.51l0 534.41c0,5.24 -1.84,9.67 -5.5,13.33 -3.6,3.6 -8.02,5.43 -13.2,5.43l-117.57 0c-5.18,0 -9.61,-1.83 -13.27,-5.43 -3.6,-3.66 -5.43,-8.09 -5.43,-13.33l0 -251.95c0,-5.24 -2.33,-8.09 -7.07,-8.59 -4.67,-0.57 -8.59,1.26 -11.75,5.43l-131.78 212.08c-2.59,4.17 -6.76,6.25 -12.51,6.25 -5.75,0 -10.24,-2.08 -13.33,-6.25l-131.79 -212.08c-2.59,-4.17 -6.25,-6 -10.99,-5.43 -4.67,0.5 -7.07,3.34 -7.07,8.59l0 251.95c0,5.24 -1.77,9.67 -5.43,13.33 -3.6,3.6 -8.03,5.43 -13.21,5.43l-117.56 0c-5.24,0 -9.61,-1.83 -13.27,-5.43 -3.6,-3.66 -5.43,-8.09 -5.43,-13.33l0 -534.41c0,-5.24 1.83,-9.67 5.43,-13.33 3.66,-3.66 8.09,-5.49 13.27,-5.49l108.98 0c5.17,0 10.68,1.58 16.36,4.73 5.68,3.1 9.86,6.76 12.45,10.94l150.61 220.67c3.16,4.17 6.82,6.25 11,6.25 4.16,0 7.58,-2.08 10.17,-6.25l150.62 -220.67c3.09,-4.17 7.52,-7.84 13.2,-10.94 5.75,-3.15 11.19,-4.73 16.36,-4.73l109.05 0c5.18,0 9.6,1.83 13.2,5.49 3.66,3.66 5.5,8.09 5.5,13.33z"/>
     <path class="fil4" d="M10017.7 8222.93c2.08,-4.73 5.62,-8.72 10.55,-12.13 4.99,-3.41 10.3,-5.11 16.05,-5.11l109.55 0c5.24,0 10.3,1.7 15.29,5.11 4.92,3.41 8.47,7.4 10.55,12.13l228.51 532.07c2.08,4.67 1.64,9.67 -1.2,14.85 -2.84,5.24 -8.47,7.83 -16.8,7.83l-133.81 0c-5.74,0 -11.12,-1.64 -16.04,-5.05 -4.99,-3.41 -8.73,-7.46 -11.38,-12.13l-21.09 -46.93c-2.65,-4.74 -6.38,-8.79 -11.38,-12.14 -4.92,-3.41 -10.04,-5.11 -15.22,-5.11l-165.15 0c-5.74,0 -11.06,1.7 -16.04,5.11 -4.93,3.35 -8.47,7.4 -10.56,12.14l-21.92 46.93c-2.09,4.67 -5.56,8.72 -10.56,12.13 -4.92,3.41 -10.04,5.05 -15.22,5.05l-134.62 0c-2.59,0 -5.31,-0.5 -8.22,-1.57 -2.84,-1.01 -5.18,-2.59 -7.01,-4.68 -1.83,-2.08 -3.03,-4.67 -3.54,-7.83 -0.5,-3.1 0.26,-6.76 2.34,-10.94l226.93 -529.73zm46.18 340.4l0 0 69.62 0c5.24,0 9.04,-1.71 11.37,-5.12 2.34,-3.41 2.21,-7.46 -0.37,-12.13 -5.24,-13.01 -11.5,-28.3 -18.83,-45.73 -7.27,-17.5 -14.09,-33.8 -20.34,-48.96 -2.08,-4.67 -4.42,-7.01 -7,-7.01 -2.66,0 -4.99,2.34 -7.07,7.01l-39.11 94.7c-2.09,4.67 -2.09,8.72 0,12.13 2.08,3.41 5.99,5.12 11.75,5.12z"/>
     <path class="fil4" d="M11049.81 8223.69l0 535.23c0,5.24 -1.83,9.67 -5.43,13.33 -3.66,3.6 -8.09,5.43 -13.26,5.43l-115.61 0c-5.18,0 -10.68,-1.57 -16.37,-4.67 -5.74,-3.15 -10.17,-6.75 -13.33,-10.93l-203.74 -287.2c-3.15,-4.16 -6.44,-5.87 -9.79,-5.11 -3.41,0.82 -5.05,3.79 -5.05,9.04l0 280.12c0,5.24 -1.9,9.67 -5.56,13.33 -3.66,3.6 -8.09,5.43 -13.33,5.43l-117.19 0c-5.24,0 -9.73,-1.83 -13.39,-5.43 -3.66,-3.66 -5.49,-8.09 -5.49,-13.33l0 -535.23c0,-5.18 1.83,-9.67 5.49,-13.27 3.66,-3.66 8.09,-5.49 13.27,-5.49l117.37 0c5.24,0 10.68,1.45 16.43,4.29 5.74,2.91 10.17,6.38 13.33,10.56l203.42 287.19c3.16,4.17 6.38,6 9.8,5.43 3.41,-0.5 5.11,-3.34 5.11,-8.59l0 -280.13c0,-5.18 1.77,-9.67 5.43,-13.27 3.66,-3.66 8.09,-5.49 13.33,-5.49l115.8 0c5.18,0 9.67,1.83 13.27,5.49 3.66,3.6 5.49,8.09 5.49,13.27z"/>
     <path class="fil4" d="M11384.71 8222.93c2.08,-4.73 5.61,-8.72 10.55,-12.13 4.99,-3.41 10.3,-5.11 16.04,-5.11l109.55 0c5.24,0 10.3,1.7 15.29,5.11 4.93,3.41 8.47,7.4 10.56,12.13l228.5 532.07c2.09,4.67 1.64,9.67 -1.2,14.85 -2.84,5.24 -8.47,7.83 -16.8,7.83l-133.8 0c-5.75,0 -11.12,-1.64 -16.05,-5.05 -4.99,-3.41 -8.72,-7.46 -11.37,-12.13l-21.1 -46.93c-2.65,-4.74 -6.37,-8.79 -11.37,-12.14 -4.93,-3.41 -10.05,-5.11 -15.23,-5.11l-165.14 0c-5.75,0 -11.06,1.7 -16.05,5.11 -4.92,3.35 -8.47,7.4 -10.55,12.14l-21.93 46.93c-2.08,4.67 -5.55,8.72 -10.55,12.13 -4.93,3.41 -10.05,5.05 -15.23,5.05l-134.62 0c-2.59,0 -5.3,-0.5 -8.22,-1.57 -2.84,-1.01 -5.17,-2.59 -7,-4.68 -1.84,-2.08 -3.03,-4.67 -3.54,-7.83 -0.5,-3.1 0.25,-6.76 2.34,-10.94l226.93 -529.73zm46.17 340.4l0 0 69.63 0c5.24,0 9.03,-1.71 11.37,-5.12 2.34,-3.41 2.21,-7.46 -0.38,-12.13 -5.24,-13.01 -11.5,-28.3 -18.82,-45.73 -7.27,-17.5 -14.09,-33.8 -20.34,-48.96 -2.08,-4.67 -4.42,-7.01 -7.01,-7.01 -2.65,0 -4.99,2.34 -7.07,7.01l-39.11 94.7c-2.08,4.67 -2.08,8.72 0,12.13 2.09,3.41 6,5.12 11.75,5.12z"/>
     <path class="fil4" d="M11841.66 8224.51c0,-5.24 1.77,-9.67 5.43,-13.33 3.6,-3.66 8.02,-5.49 13.26,-5.49l117.51 0c5.24,0 9.61,1.83 13.27,5.49 3.6,3.66 5.43,8.09 5.43,13.33l0 316.89c0,20.34 3.28,37.15 9.86,50.48 6.5,13.27 14.65,23.7 24.32,31.27 9.67,7.59 20.02,12.89 31.02,16.05 11.06,3.16 20.97,4.67 29.88,4.67 8.91,0 18.82,-1.51 29.88,-4.67 11,-3.16 21.16,-8.47 30.64,-16.05 9.42,-7.58 17.37,-18 23.95,-31.27 6.56,-13.33 9.86,-30.13 9.86,-50.48l0 -316.89c0,-5.24 1.76,-9.67 5.43,-13.33 3.59,-3.66 8.02,-5.49 13.2,-5.49l117.57 0c5.17,0 9.6,1.83 13.27,5.49 3.59,3.66 5.42,8.09 5.42,13.33l0 316.89c0,37.03 -5.87,70.7 -17.56,100.96 -11.75,30.26 -28.55,56.03 -50.41,77.45 -21.87,21.35 -48.2,37.9 -78.92,49.65 -30.7,11.75 -64.82,17.62 -102.34,17.62 -37.53,0 -71.64,-5.87 -102.34,-17.62 -30.71,-11.76 -57.05,-28.31 -78.92,-49.65 -21.86,-21.43 -38.79,-47.19 -50.79,-77.45 -12.01,-30.26 -17.94,-63.94 -17.94,-100.96l0 -316.89z"/>
     <path class="fil4" d="M12546.7 8581.27c28.17,18.32 56.04,32.66 83.71,43.08 27.67,10.43 53.45,15.61 77.45,15.61 23,0 40.43,-3.22 52.44,-9.74 12,-6.56 18,-16.29 18,-29.37 0,-6.76 -2.59,-12.13 -7.84,-16.05 -5.18,-3.91 -12.13,-7.14 -20.72,-9.79 -8.59,-2.59 -18.63,-4.67 -30.13,-6.25 -11.5,-1.58 -23.19,-3.6 -35.18,-6.25 -11.5,-2.09 -24.96,-4.55 -40.31,-7.4 -15.42,-2.9 -31.21,-7.07 -47.32,-12.57 -16.23,-5.43 -32.22,-12.39 -48.13,-20.72 -15.92,-8.34 -30.14,-19.01 -42.65,-32.09 -12.51,-13.02 -22.56,-28.56 -30.13,-46.56 -7.59,-18 -11.38,-39.23 -11.38,-63.74 0,-36.01 7.07,-65.71 21.16,-89.2 14.09,-23.51 31.9,-42.14 53.58,-55.98 21.67,-13.77 45.8,-23.44 72.4,-28.93 26.6,-5.49 52.44,-8.22 77.45,-8.22 43.84,0 83.08,6.38 117.75,19.2 34.68,12.77 67.98,31.4 99.76,55.92 4.17,3.66 6.5,8.09 7.07,13.33 0.51,5.17 -0.82,9.92 -3.91,14.09l-61.03 86.8c-3.16,4.23 -7.33,6.82 -12.51,7.84 -5.24,1.07 -9.92,0 -14.09,-3.1 -26.66,-16.67 -51.43,-28.55 -74.35,-35.63 -22.94,-7.01 -44.1,-10.56 -63.36,-10.56 -5.75,0 -12.45,0.13 -19.96,0.38 -7.59,0.26 -14.79,1.33 -21.55,3.16 -6.76,1.83 -12.39,4.8 -16.81,8.97 -4.41,4.17 -6.62,9.93 -6.62,17.25 0,7.27 5.43,13.77 16.42,19.52 10.93,5.74 23.44,10.74 37.53,14.91 14.09,4.16 27.67,7.39 40.69,9.73 13.08,2.4 21.42,3.79 25.08,4.35 18.76,3.6 39.36,8.98 61.78,15.99 22.44,7.07 43.47,17.49 62.99,31.33 19.58,13.84 36.01,31.84 49.33,53.95 13.27,22.25 19.9,49.98 19.9,83.4 0,31.27 -5.43,58.25 -16.43,80.93 -10.93,22.75 -26.22,41.38 -45.73,55.98 -19.58,14.59 -43.03,25.46 -70.45,32.47 -27.35,7.07 -57.8,10.55 -91.15,10.55 -27.11,0 -52.44,-2.21 -75.88,-6.63 -23.5,-4.42 -45.42,-10.55 -65.77,-18.38 -20.33,-7.84 -39.23,-17.06 -56.73,-27.8 -17.43,-10.68 -33.48,-22.05 -48.07,-34.05 -4.23,-3.09 -6.57,-7.39 -7.07,-12.89 -0.51,-5.49 0.76,-10.3 3.91,-14.46l60.27 -86.87c3.09,-4.17 7.27,-6.76 12.51,-7.84 5.18,-1.01 9.92,-0.25 14.09,2.34z"/>
    </g>
    <g>
     <path class="fil2" d="M18911.81 8560.33c-89.07,28.11 -179.18,27.48 -269.15,26.87 -44.42,-0.3 -88.98,-1.23 -132.53,-12.07 -84.65,-21.06 -133.45,-72.55 -140.75,-159.53 -5.72,-68.28 -6.75,-137.54 0.96,-205.8 9.58,-84.81 61.04,-140.08 143.63,-160.97 72.83,-18.44 147.1,-18.79 221.49,-15.48 36.54,1.63 73.05,3.94 108.92,12.18 105.61,24.25 161.52,87.13 162.97,195.25 2.35,175.68 2.29,351.47 -0.79,527.14 -1.95,111.04 -60.49,172.24 -170.28,189.93 -26.21,4.22 -52.59,6.06 -79.06,6.1 -94.63,0.17 -189.25,-0.33 -283.87,0.47 -15.41,0.14 -19.13,-4.36 -18.2,-18.84 1.26,-19.63 1.2,-39.46 0.02,-59.1 -0.89,-14.8 2.73,-19.94 18.93,-19.79 94.62,0.86 189.24,0.34 283.87,0.47 31.67,0.04 62.73,-2.83 93.2,-12.6 34.27,-10.98 52.89,-33.54 57.87,-69.04 3.93,-28.1 2.49,-56.22 2.68,-84.34 0.32,-46.72 0.09,-93.47 0.09,-140.84zm-230.78 -69.26l0 0c12.96,0 25.92,0.16 38.87,-0.03 39.94,-0.58 80,0.08 119.05,-10.57 50.85,-13.87 72.74,-42.34 72.84,-95.12 0.09,-44.51 0.1,-89.01 0,-133.52 -0.13,-65.61 -24.7,-99.12 -88.95,-111.53 -89.69,-17.32 -180.46,-17.49 -270.4,-2.09 -60.75,10.4 -87.1,42.72 -88.83,102.92 -1.41,49.53 -1.41,99.18 0.01,148.71 1.66,58.32 24.59,84.16 82.65,95.16 44.52,8.43 89.77,5.69 134.76,6.06z"/>
     <path class="fil2" d="M17046.89 8513.05c0,73.8 0.02,147.6 0,221.41 -0.04,120.3 -65.19,206.52 -182.14,232.44 -109.55,24.28 -220.24,24.75 -329.6,-3.55 -61.31,-15.87 -113.46,-46.6 -144.74,-104.63 -18.51,-34.33 -26.38,-71.95 -26.56,-110.5 -0.72,-154.36 -1.03,-308.73 -0.26,-463.09 0.29,-57.47 13.03,-111.95 53.73,-155.84 37.05,-39.95 84.96,-60.9 136.93,-71.61 107.82,-22.22 215.94,-22.49 322.96,4.89 99.6,25.49 166.02,107.86 168.8,210.51 2.17,79.94 0.44,159.97 0.44,239.97 0.15,0 0.3,0 0.45,0zm-586.84 -1.76l0 0c0.16,0 0.31,0 0.46,0 0,78.31 -0.68,156.62 0.22,234.92 0.68,59.39 33.06,104.49 89.65,121 94.89,27.67 191.38,27.04 287.23,5.86 79.47,-17.56 113.34,-63.02 113.34,-144.37 0.01,-144.79 0.01,-289.58 0,-434.37 -0.01,-74.79 -36.02,-123.1 -108.45,-140.35 -90.07,-21.47 -180.93,-20.4 -271.38,-1.73 -29.34,6.05 -56.5,17.95 -77.51,41.25 -26.25,29.08 -33.84,63.68 -33.66,101.45 0.35,72.11 0.1,144.23 0.1,216.34z"/>
     <path class="fil2" d="M15670.78 8964.01c-96.32,0 -192.65,-0.2 -288.97,0.26 -12.04,0.05 -16.41,-2.23 -16.32,-15.51 0.64,-91.25 -0.07,-182.51 0.47,-273.76 0.48,-82 32.63,-126.04 110.27,-151.98 112.28,-37.5 224.68,-74.6 337.06,-111.79 31.75,-10.51 34.88,-14.61 34.89,-48.23 0.02,-40 0.01,-79.99 0,-119.98 0,-3.94 0.08,-7.9 -0.07,-11.83 -1.93,-49.2 -15.95,-64.41 -65.18,-70.93 -17.89,-2.37 -35.84,-3.4 -53.9,-3.38 -105.89,0.1 -211.8,-0.17 -317.7,0.33 -12.9,0.06 -17.78,-2.85 -17.07,-16.54 1.14,-21.92 0.65,-43.93 0.15,-65.9 -0.22,-9.65 1.98,-14.04 12.96,-13.99 119.97,0.63 239.96,0.03 359.92,1.48 45.64,0.56 89.54,11.63 126.17,40.98 34.44,27.61 48.12,66.52 49.59,108.73 2.03,57.95 1.74,116.03 0.49,174.02 -1.1,51.64 -34.75,94.76 -84.09,111.12 -111.83,37.09 -223.77,73.83 -335.62,110.84 -59.16,19.57 -63.35,25.55 -63.35,87.86 0,50.7 0.56,101.4 -0.34,152.09 -0.27,14.89 3.01,19.67 18.97,19.6 159.41,-0.66 318.83,-0.05 478.25,-0.89 17.91,-0.09 21.85,5.24 20.64,21.59 -1.4,19.04 -1.29,38.35 -0.02,57.41 0.98,14.54 -2.87,18.94 -18.23,18.81 -96.32,-0.79 -192.65,-0.4 -288.97,-0.4z"/>
     <path class="fil2" d="M17782.22 8468.24c0,129.53 0.28,259.07 -0.38,388.6 -0.07,15.17 4.19,18.65 18.78,18.48 66.45,-0.78 132.91,0.04 199.36,-0.66 13.6,-0.14 17.15,4.09 16.57,17.09 -1.02,22.49 -0.74,45.06 -0.08,67.57 0.29,9.78 -3,12.21 -12.44,12.19 -188.1,-0.24 -376.21,-0.24 -564.33,-0.01 -9.2,0.01 -12.94,-2.05 -12.66,-12.04 0.67,-23.64 0.94,-47.33 -0.08,-70.94 -0.53,-12.2 4.76,-13.72 14.85,-13.69 74.9,0.28 149.82,-0.35 224.71,0.55 16.05,0.19 19.11,-4.98 19.08,-19.86 -0.45,-226.4 -0.53,-452.81 0.13,-679.22 0.05,-17.09 -5.15,-19.98 -20.74,-19.76 -64.19,0.9 -128.4,0.07 -192.61,0.65 -11.88,0.11 -15.46,-3.16 -14.97,-15.02 0.92,-22.49 0.65,-45.05 0.09,-67.57 -0.24,-9.68 1.72,-13.9 12.81,-13.86 99.68,0.42 199.37,0.5 299.06,-0.04 14.58,-0.08 12.88,8.11 12.88,17.23 -0.06,130.1 -0.04,260.2 -0.04,390.3z"/>
    </g>
   </g>
   <g>
    <g>
     <path class="fil0" d="M6743.06 2839.18c252.01,0 456.3,-204.29 456.3,-456.3 0,-252 -204.29,-456.29 -456.3,-456.29 -252.01,0 -456.29,204.29 -456.29,456.29 0,252.01 204.28,456.3 456.29,456.3z"/>
     <path class="fil0" d="M5475.57 1825.19c138.15,967.04 157.98,1803.23 109.78,2514.34 412.71,302.62 743.18,710.26 952.75,1183.62 1066.35,-1616.14 1168.26,-3089.57 1168.26,-3089.57 -1216.8,2027.99 -2230.79,-608.4 -2230.79,-608.4z"/>
    </g>
    <g>
     <g>
      <path class="fil2" d="M3853.17 1723.78c392.02,0 709.8,-317.78 709.8,-709.79 0,-392.02 -317.78,-709.8 -709.8,-709.8 -392.01,0 -709.79,317.78 -709.79,709.8 0,392.01 317.78,709.79 709.79,709.79z"/>
     </g>
     <g>
      <path class="fil2" d="M4931.11 3978.04c272.83,-947.01 459.53,-2249.24 341.66,-3978.04 0,0 -1368.89,5120.67 -2839.19,0 0,0 -276.29,1935.72 355.16,3969.11 328.92,-127.19 686.06,-197.67 1059.87,-197.67 382.43,0 747.44,73.64 1082.5,206.6z"/>
     </g>
    </g>
    <g>
     <path class="fil3" d="M963.29 2839.18c252.01,0 456.3,-204.29 456.3,-456.3 0,-252 -204.29,-456.29 -456.3,-456.29 -252,0 -456.29,204.29 -456.29,456.29 0,252.01 204.29,456.3 456.29,456.3z"/>
     <path class="fil3" d="M2120.62 4333.43c-47.67,-709.8 -27.59,-1543.95 110.16,-2508.25 0,0 -1013.99,2636.39 -2230.78,608.4 0,0 101.49,1468.15 1162.49,3080.88 211.31,-472.88 543.82,-879.71 958.13,-1181.03z"/>
    </g>
    <polygon class="fil5" points="1696.51,8643.78 1956.2,8606.68 1696.51,8436.07 "/>
    <polygon class="fil5" points="6556.33,7605.03 6333.74,7716.33 6445.03,7382.45 "/>
    <g>
     <path class="fil1" d="M6606.09 6711.97c0,1522.93 -1234.59,2757.51 -2757.52,2757.51 -1522.91,0 -2757.44,-1234.58 -2757.44,-2757.51 0,-1522.86 1234.53,-2757.39 2757.44,-2757.39 1522.93,0 2757.52,1234.53 2757.52,2757.39z"/>
     <g>
      <g>
       <path class="fil2" d="M3923.82 6009.4c-41.38,-55.78 -60.11,-156.26 -41.62,-223.23l38.09 -138.2c18.44,-66.92 90.4,-121.74 159.84,-121.74l84.2 0c69.4,0 128.81,-56.8 131.76,-126.19l55.59 -1272.35c1.95,-45.19 27.63,-87.92 64.35,-114.56 611.6,127.94 1148.62,458.54 1537.89,918.28 1.85,52.39 -8.57,108.58 -29.86,147.59l-183.67 336.39c-33.26,60.96 -117.28,114.23 -186.57,118.54l-898.53 54.71c-69.39,4.27 -150.07,59.23 -179.26,122.32l-76.07 163.78c-29.24,62.99 -100.76,145.74 -158.82,183.76l-83.43 54.62c-58.11,38.06 -139.51,23.49 -180.87,-32.25l-53.02 -71.47z"/>
       <path class="fil2" d="M4178.14 6348.22c-69.35,-4.46 -168.66,29.53 -220.72,75.53l-231.7 204.68c-52.06,45.95 -94.65,140.33 -94.65,209.82l0 399.96c0,69.49 49.46,154.23 109.95,188.46l425.59 240.56c60.52,34.24 162.84,82.95 227.44,108.47l298.33 117.81c64.6,25.53 128.08,102.17 141.05,170.4l59.56 313.15c12.98,68.33 4.35,177.57 -19.17,243.03l-161.54 449.85c-23.63,65.33 4.31,86.87 61.79,48.08l660.92 -447.82c57.53,-38.88 115.73,-126.53 129.34,-194.66l189.04 -945.11c13.6,-68.09 -5.66,-171.9 -42.86,-230.49l-496.28 -782.99c-37.15,-58.69 -124.35,-110.31 -193.65,-114.81l-842.44 -53.94z"/>
       <path class="fil2" d="M2606.18 4249.8c13.91,43.77 29.08,87.2 42.12,119.6l79.62 197.69c25.93,64.45 5,155.29 -46.51,201.89l-402.08 363.78c-51.49,46.63 -63.08,132.67 -25.83,191.29l159.11 249.98c37.3,58.59 27.48,146.62 -21.84,195.54l-325.98 323.7c-49.27,48.95 -146.16,94.62 -215.28,101.49l-632.72 62.75c-30.65,3.03 -60.3,-5.26 -84.61,-21.44 151.43,-870.27 710.81,-1600.44 1474,-1986.28z"/>
       <path class="fil2" d="M2000.29 6465.49c-67.85,-14.91 -143.4,26 -167.91,91.03l-191.48 507.47c-24.53,64.99 -15.32,166.77 20.38,226.38l333.14 555.26c35.74,59.46 86.92,160.66 113.82,224.73l267.17 637.05c26.88,64.11 98.06,144.97 158.18,179.74l412.77 238.44c60.18,34.76 85.13,11.86 55.44,-50.99l-299.15 -634.15c-29.63,-62.85 -46.14,-170.5 -36.68,-239.31l91.9 -669.44c9.44,-68.8 3.84,-180.32 -12.45,-247.82l-137.21 -568.38c-16.29,-67.5 -85.1,-135 -152.96,-149.92l-454.98 -100.09z"/>
       <g>
        <path class="fil2" d="M3932.78 5375.36c0,40.67 -32.97,73.69 -73.65,73.69 -40.72,0 -73.7,-33.02 -73.7,-73.69 0,-40.68 32.98,-73.66 73.7,-73.66 40.68,0 73.65,32.98 73.65,73.66z"/>
        <path class="fil2" d="M3974.91 5217.5c-23.2,-19.27 -32.64,-87.18 -21.06,-150.87 11.57,-63.62 68.42,-136.28 126.29,-161.36 57.86,-25.09 116.25,-13.46 129.77,25.79 13.6,39.27 -12.69,114.32 -58.3,166.69l-51.77 59.54c-45.61,52.42 -101.83,79.53 -124.93,60.21z"/>
       </g>
       <path class="fil2" d="M6306.98 7962.09c0,0 -164.01,-1271.14 -100.86,-1397.37 34.2,-68.49 192.13,-287.85 329.59,-474.4 46.04,199.79 70.38,407.89 70.38,621.66 0,450.03 -107.86,874.84 -299.05,1250.09l-0.06 0.03z"/>
      </g>
     </g>
    </g>
    <path class="fil0" d="M1696.51 8643.78c0,0 1706.5,-1740.26 4859.81,-1038.74l222.59 -1483.9c0,0 -3487.2,-667.76 -5861.45,1187.13l779.05 1335.52z"/>
    <g>
     <g>
      <path class="fil4" d="M2287.73 7060.98c134.21,217.21 198.09,327.33 319.28,550.09 2.94,5.43 3.34,11.1 1.2,16.96 -2.13,5.9 -6.21,10.34 -12.19,13.31 -53.89,26.95 -80.59,40.79 -133.46,69.19 -6.47,3.48 -12.68,4.37 -18.68,2.71 -5.97,-1.65 -10.6,-5.14 -13.74,-10.46 -40.4,-68.27 -60.92,-102.26 -102.59,-169.95 -3.23,-5.23 -8.16,-8.61 -14.65,-9.95 -6.49,-1.35 -12.85,-0.33 -18.93,3.01 -74.99,41.39 -112.01,62.79 -185,106.94 -6.49,3.95 -10.44,8.89 -11.83,14.78 -1.39,5.9 -0.31,11.42 3.17,16.53 44.77,65.66 66.84,98.64 110.36,164.93 3.39,5.16 4.26,10.78 2.63,16.81 -1.6,6.05 -5.25,10.81 -10.91,14.29 -50.7,31.16 -75.78,47.08 -125.4,79.6 -6.1,4.01 -12.2,5.45 -18.28,4.29 -6.11,-1.15 -10.94,-4.24 -14.51,-9.28 -146.73,-206.57 -223.25,-308.18 -382.41,-507.59 -3.87,-4.85 -5.18,-10.34 -3.85,-16.46 1.3,-6.08 5.4,-11.47 12.25,-16.03 55.67,-37.09 83.81,-55.25 140.65,-90.79 6.34,-3.97 13.07,-5.58 20.12,-4.85 7.03,0.7 12.41,3.54 16.09,8.52 52.38,70.84 78.2,106.47 129.08,178.13 3.6,5.05 8.61,8.12 15.04,9.25 6.43,1.13 12.99,-0.36 19.69,-4.41 75.13,-45.65 113.23,-67.79 190.42,-110.6 6.25,-3.47 10.43,-8.22 12.47,-14.27 2.05,-6.05 1.39,-11.68 -1.95,-16.9 -47.5,-73.98 -71.63,-110.79 -120.65,-184.03 -3.44,-5.13 -4.25,-10.68 -2.39,-16.64 1.83,-5.94 6.36,-10.96 13.62,-14.9 59.22,-32.41 89.11,-48.22 149.42,-79.01 6.67,-3.42 13.58,-4.45 20.54,-3.14 6.96,1.31 12.13,4.64 15.39,9.94z"/>
      <path class="fil4" d="M2438.12 6988.86c-3.12,-5.38 -3.44,-11.04 -0.87,-17.05 2.58,-5.98 7.27,-10.58 14.12,-13.73 61.75,-28.65 92.89,-42.55 155.66,-69.5 6.92,-2.95 13.9,-3.56 20.8,-1.78 6.89,1.77 11.83,5.41 14.75,10.91 71.21,133.46 105.66,200.63 172.22,335.78 10.68,21.69 23.53,37.91 38.54,48.77 15.06,10.85 30.47,17.87 46.33,21.12 15.86,3.24 31.37,3.84 46.6,1.79 15.25,-2.05 28.41,-5.2 39.5,-9.52 11.11,-4.32 22.77,-10.8 35,-19.41 12.26,-8.64 22.55,-19.23 30.85,-31.88 8.28,-12.63 13.43,-27.71 15.47,-45.23 2.03,-17.56 -1.74,-37.4 -11.46,-59.54 -60.6,-137.98 -92.08,-206.63 -157.39,-343.15 -2.68,-5.61 -2.48,-11.29 0.6,-17.07 3.08,-5.75 8.2,-9.95 15.33,-12.54 64.63,-23.58 97.18,-34.91 162.71,-56.7 7.23,-2.39 14.26,-2.42 21.08,-0.09 6.82,2.32 11.46,6.35 13.94,12.06 60.4,138.81 89.41,208.56 145.07,348.66 16.27,40.97 23.11,80.68 21.13,119 -1.97,38.33 -12.25,73.86 -30.42,106.7 -18.14,32.87 -43.6,62.32 -76.17,88.73 -32.56,26.42 -71.44,48.16 -116.85,65.7 -45.42,17.54 -89.18,27.67 -131.87,30.38 -42.69,2.71 -82.58,-1.44 -120.02,-12.65 -37.46,-11.22 -71.59,-29.34 -102.6,-54.62 -31.02,-25.27 -57.06,-57.15 -77.91,-95.89 -71.36,-132.61 -108.2,-198.48 -184.15,-329.24z"/>
      <path class="fil4" d="M4204.96 6474.72c60.13,248.68 86.75,373.42 133.05,623.23 1.12,6.09 -0.37,11.58 -4.48,16.43 -4.1,4.88 -9.68,7.72 -16.63,8.62 -63.31,7.91 -94.83,12.32 -157.52,22.03 -6.92,1.08 -13.24,-0.12 -19.01,-3.58 -5.76,-3.46 -9.34,-8.22 -10.68,-14.27 -25.95,-116.88 -39.7,-175.26 -68.72,-291.83 -1.5,-5.99 -5.63,-8.82 -12.4,-8.32 -6.76,0.51 -11.73,3.54 -14.89,9.12 -48.95,110.44 -72.31,165.92 -116.72,277.32 -2.24,5.49 -7.15,8.99 -14.79,10.55 -7.63,1.55 -14.16,0.35 -19.59,-3.58 -96.09,-82.93 -145.93,-123.39 -249.08,-201.93 -5.11,-3.86 -10.81,-4.68 -17.02,-2.54 -6.21,2.17 -8.33,6.23 -6.38,12.1 37.59,113.97 55.62,171.11 90.16,285.64 1.79,5.92 0.94,11.55 -2.5,16.84 -3.43,5.28 -8.5,8.77 -15.2,10.41 -60.56,15.07 -90.65,23.03 -150.45,39.77 -6.62,1.83 -12.89,1.38 -18.92,-1.44 -5.99,-2.79 -10,-7.11 -11.99,-12.97 -81.81,-240.06 -126.13,-359.41 -221.53,-596.31 -2.32,-5.77 -1.75,-11.42 1.76,-17 3.51,-5.54 8.95,-9.4 16.3,-11.52 61.81,-17.93 92.91,-26.51 155.42,-42.85 7.49,-1.93 15.93,-2.2 25.44,-0.81 9.45,1.41 16.92,4.02 22.34,7.77 122.29,77.3 181.48,117.54 295.8,200.69 5.8,3.84 11.63,5.17 17.47,3.96 5.85,-1.22 9.9,-4.56 12.18,-10.1 54.72,-118.2 83.52,-177 143.97,-293.83 3.23,-5.58 8.57,-10.92 16.02,-15.94 7.47,-5.02 15.04,-8.15 22.75,-9.42 64.74,-10.57 97.25,-15.44 162.54,-24.31 7.77,-1.07 14.91,0.17 21.4,3.69 6.48,3.55 10.45,8.33 11.91,14.39z"/>
      <path class="fil4" d="M4632.21 6432.11c2.2,-5.71 6.72,-10.81 13.64,-15.27 6.86,-4.42 14.67,-6.87 23.5,-7.37 67.09,-3.62 100.74,-4.98 168.24,-6.79 8.04,-0.22 16.19,1.6 24.37,5.43 8.2,3.84 14.28,8.56 18.27,14.07 175.23,249.94 253.33,378.27 390.13,637.9 3.09,5.72 2.68,11.6 -1.15,17.62 -3.84,6.02 -11.65,8.75 -23.35,8.22 -75.14,-3.3 -112.61,-4.32 -187.26,-5.09 -8.02,-0.07 -15.58,-2.14 -22.78,-6.24 -7.2,-4.07 -12.79,-8.87 -16.82,-14.45 -13.4,-22.35 -20.16,-33.49 -33.87,-55.77 -4.13,-5.55 -9.86,-10.32 -17.18,-14.34 -7.35,-3.98 -14.69,-5.89 -22.05,-5.84 -93.19,0.92 -139.58,2.34 -231.85,7.06 -8.03,0.38 -15.23,2.77 -21.62,7.18 -6.4,4.37 -10.69,9.42 -12.85,15.14 -9.29,22.85 -13.89,34.28 -23.04,57.17 -2.18,5.72 -6.39,10.82 -12.66,15.25 -6.25,4.42 -12.97,6.89 -20.11,7.37 -73.68,5.03 -110.36,8.17 -183.34,15.62 -3.51,0.37 -7.33,0.15 -11.44,-0.69 -4.05,-0.84 -7.56,-2.32 -10.46,-4.52 -2.88,-2.13 -5.05,-5.07 -6.38,-8.64 -1.32,-3.55 -0.97,-8 0.99,-13.17 80.62,-261.38 124.44,-391.45 219.06,-649.84zm129.4 398.75l0 0c40.04,-1.66 60.09,-2.32 100.3,-3.28 7.51,-0.2 12.74,-2.31 15.7,-6.41 2.94,-4.11 2.24,-8.9 -2.15,-14.38 -9.33,-15.31 -20.45,-33.18 -33.63,-53.61 -13.19,-20.39 -25.57,-39.4 -37.11,-57.03 -3.81,-5.45 -7.65,-8.13 -11.47,-7.99 -3.86,0.14 -6.93,3.03 -9.25,8.75 -16.98,45.68 -25.37,68.55 -41.94,114.33 -2.27,5.69 -1.6,10.47 1.92,14.35 3.48,3.84 9.38,5.63 17.62,5.27z"/>
      <path class="fil4" d="M6164.68 6530.14c-12.8,257.24 -22.65,385.24 -49.15,639.53 -0.65,6.19 -3.82,10.94 -9.5,14.22 -5.66,3.31 -12.23,4.21 -19.68,2.73 -66.09,-12.98 -99.1,-18.95 -165.05,-29.9 -7.45,-1.23 -15.08,-4.37 -23.01,-9.42 -7.9,-5.03 -13.92,-10.39 -18.07,-16.06 -107.38,-155.18 -165.09,-231.66 -288.42,-381.28 -4.73,-5.42 -9.66,-7.98 -14.71,-7.52 -5.09,0.44 -7.55,3.8 -7.49,10.05 1.49,134.08 1.28,201.01 -1.02,334.59 -0.11,6.21 -2.84,11.24 -8.12,15.05 -5.27,3.84 -11.65,5.37 -19.05,4.66 -66.36,-6.44 -99.47,-9.17 -165.53,-13.62 -7.42,-0.5 -13.7,-3.06 -18.96,-7.76 -5.21,-4.67 -7.91,-10.13 -8.01,-16.33 -4.55,-255.04 -10.29,-382.98 -28.74,-639.23 -0.44,-6.24 2.01,-11.42 7.41,-15.51 5.36,-4.04 12.15,-5.89 20.33,-5.45 73.44,4.03 110.25,6.58 183.99,12.8 8.18,0.7 16.87,3.2 26.03,7.42 9.13,4.23 16.24,9.09 21.36,14.55 132.41,149.64 194.66,226.29 311.09,382.15 4.47,5.73 9.27,8.64 14.36,8.79 5.11,0.16 7.83,-2.85 8.08,-9.1 5.81,-134.04 7.78,-201.25 9.8,-335.93 0.1,-6.26 3.03,-11.2 8.9,-14.73 5.83,-3.52 12.88,-4.66 21.13,-3.42 73.27,11.16 109.96,17.28 183.37,30.65 8.25,1.49 15.2,5.03 20.76,10.46 5.55,5.46 8.23,11.35 7.91,17.61z"/>
     </g>
    </g>
   </g>
  </g>
 </g>
</svg>
