<?xml version="1.0" encoding="UTF-8"?>
<!DOCTYPE svg PUBLIC "-//W3C//DTD SVG 1.1//EN" "http://www.w3.org/Graphics/SVG/1.1/DTD/svg11.dtd">
<!-- Creator: CorelDRAW 2018 (64 Bit) -->
<svg xmlns="http://www.w3.org/2000/svg" xml:space="preserve" width="116.593mm" height="283.865mm" version="1.1" style="shape-rendering:geometricPrecision; text-rendering:geometricPrecision; image-rendering:optimizeQuality; fill-rule:evenodd; clip-rule:evenodd"
viewBox="0 0 11659.32 28386.52"
 xmlns:xlink="http://www.w3.org/1999/xlink">
 <defs>
  <style type="text/css">
   <![CDATA[
    .fil0 {fill:#8ACCEA}
   ]]>
  </style>
 </defs>
 <g id="Camada_x0020_1">
  <metadata id="CorelCorpID_0Corel-Layer"/>
  <g id="_1.svg">
   <polygon class="fil0" points="285.65,24767.42 285.65,26214.33 1732.56,26214.34 1732.56,27663.12 4628.26,27663.12 4628.26,26214.34 6075.17,26214.34 6075.17,24767.43 4628.26,24767.42 4628.26,23320.51 285.65,23320.51 "/>
   <polygon class="fil0" points="3223.18,7948.37 3223.18,6501.46 4670.09,6501.46 4670.1,7948.37 "/>
   <polygon class="fil0" points="8763.76,28386.52 8763.76,26939.6 10210.67,26939.6 10210.67,28386.52 "/>
   <path class="fil0" d="M2456.95 12290.36l0 2893.83 1446.92 0 0 -4340.74 -1446.92 0 0 1446.91zm-2456.95 -10843.45l1446.92 0 0 1446.91 1448.78 0.01 0 -2893.83 -2895.7 0 0 1446.91zm7740.52 795.34l-1023.11 1023.11 1023.11 1023.11 1023.11 1023.11 1023.11 -1023.11 1024.97 -1023.11 -1024.97 -1023.11 -1023.11 1023.11 -1023.11 -1023.11zm-1222.87 17848.37l1023.11 -1023.11 -1023.11 -1023.11 -1023.11 -1023.11 -1024.97 1023.11 -1023.11 1023.11 1023.11 1023.11 1024.97 -1023.11 1023.11 1023.11zm3692.89 -4101.76l1448.78 0 0 -2893.83 -1448.78 0 0 1446.91 -1446.91 0.01 0 1446.91 1446.91 0z"/>
   <polygon class="fil0" points="7316.72,13095.03 7316.72,14541.94 8763.63,14541.95 8763.63,13095.04 10210.54,13095.03 10210.54,11646.25 7316.72,11646.25 "/>
  </g>
 </g>
</svg>
