<?xml version="1.0" encoding="UTF-8"?>
<!DOCTYPE svg PUBLIC "-//W3C//DTD SVG 1.1//EN" "http://www.w3.org/Graphics/SVG/1.1/DTD/svg11.dtd">
<!-- Creator: CorelDRAW 2018 (64 Bit) -->
<svg xmlns="http://www.w3.org/2000/svg" xml:space="preserve" width="64.7547mm" height="292.822mm" version="1.1" style="shape-rendering:geometricPrecision; text-rendering:geometricPrecision; image-rendering:optimizeQuality; fill-rule:evenodd; clip-rule:evenodd"
viewBox="0 0 6475.48 29282.21"
 xmlns:xlink="http://www.w3.org/1999/xlink">
 <defs>
  <style type="text/css">
   <![CDATA[
    .fil1 {fill:#8ACCEA}
    .fil0 {fill:#FF64B7}
   ]]>
  </style>
 </defs>
 <g id="Camada_x0020_1">
  <metadata id="CorelCorpID_0Corel-Layer"/>
  <polygon class="fil0" points="3862.29,11012.06 3862.29,12004.71 4854.94,12004.71 4854.94,10030.46 3862.29,10030.46 "/>
  <polygon class="fil0" points="1228.41,13812.31 1228.41,12819.66 2221.06,12819.66 2221.06,13812.31 "/>
  <polygon class="fil0" points="4753.75,2533.52 4753.75,1540.87 5746.4,1540.87 5746.41,2533.52 "/>
  <path class="fil0" d="M1039.08 7151.97l992.65 0 0 992.65 -992.65 0.01 0 -992.66zm992.65 -992.65l992.65 0 0 992.65 -992.65 0 0 -992.65zm-1912.35 9687.77l0 1985.31 992.65 0 0 -2977.96 -992.65 0 0 992.65zm919.7 -13861.79l0 -992.65 992.65 0 0 -992.65 -1985.31 0 0 1985.31 992.66 -0.01zm3331.7 16377.7l700.83 703.04 703.04 -703.04 700.83 -700.83 -700.83 -703.04 -703.04 703.04 -700.83 -703.04 -703.04 703.04 703.04 700.83zm0 -2807.72l-703.04 703.04 703.04 700.83 700.83 -700.83 703.04 700.83 700.83 -700.83 -700.83 -703.04 -703.04 -700.83 -700.83 700.83z"/>
  <polygon class="fil1" points="3818.07,21228.21 3818.07,22220.86 4810.73,22220.86 4810.73,20246.61 3818.07,20246.61 "/>
  <polygon class="fil1" points="1182.58,24028.85 1182.58,23036.2 2175.23,23036.2 2175.23,24028.85 "/>
  <polygon class="fil1" points="4708.7,13892.19 4708.7,12899.53 5701.35,12899.53 5701.35,13892.19 "/>
  <path class="fil1" d="M992.65 17368.14l992.65 0 0 992.65 -992.65 0 0 -992.65zm992.65 -994.86l992.66 0 0 992.65 -992.66 0 0 -992.65zm-1910.13 9689.98l0 1985.31 992.65 -0.01 0 -2977.95 -992.65 0 0 992.65zm917.48 -13861.79l0 -992.65 992.65 0 0 -992.65 -1985.3 -0.01 0 1985.31 992.65 0zm3331.7 16377.7l700.83 703.04 703.04 -703.04 700.83 -700.83 -700.83 -703.04 -703.04 703.04 -700.83 -703.04 -703.04 703.04 703.04 700.83zm0 -2807.73l-703.04 703.04 703.04 700.83 700.83 -700.83 703.04 700.83 700.83 -700.83 -700.83 -703.04 -703.04 -700.83 -700.83 700.83z"/>
 </g>
</svg>
