<?xml version="1.0" encoding="UTF-8"?>
<!DOCTYPE svg PUBLIC "-//W3C//DTD SVG 1.1//EN" "http://www.w3.org/Graphics/SVG/1.1/DTD/svg11.dtd">
<!-- Creator: CorelDRAW 2018 (64 Bit) -->
<svg xmlns="http://www.w3.org/2000/svg" xml:space="preserve" width="56.8826mm" height="295.947mm" version="1.1" style="shape-rendering:geometricPrecision; text-rendering:geometricPrecision; image-rendering:optimizeQuality; fill-rule:evenodd; clip-rule:evenodd"
viewBox="0 0 5688.26 29594.73"
 xmlns:xlink="http://www.w3.org/1999/xlink">
 <defs>
  <style type="text/css">
   <![CDATA[
    .fil1 {fill:#FF64B7}
    .fil0 {fill:white}
   ]]>
  </style>
 </defs>
 <g id="Camada_x0020_1">
  <metadata id="CorelCorpID_0Corel-Layer"/>
  <polygon class="fil0" points="-0,10651.31 -0,11335.83 684.53,11335.84 684.53,12020.36 2053.07,12020.36 2053.07,11335.84 2737.59,11335.84 2737.59,10651.32 2053.07,10651.31 2053.07,9966.79 -0,9966.79 "/>
  <polygon class="fil0" points="1389.06,2698.25 1389.06,2013.73 2073.58,2013.73 2073.58,2698.25 "/>
  <polygon class="fil0" points="4009.34,12362.5 4009.34,11677.98 4693.86,11677.98 4693.86,12362.5 "/>
  <path class="fil0" d="M1026.79 4751.49l0 1369.05 684.52 0 0 -2053.06 -684.52 0 0 684.01zm2498.56 -4751.49l-484.15 484.15 484.15 484.15 483.64 483.64 484.15 -483.64 484.15 -484.15 -484.15 -484.15 -484.15 484.15 -483.64 -484.15zm-578.23 8440.09l483.64 -483.64 -483.64 -484.15 -484.15 -483.64 -483.64 483.64 -484.15 484.15 484.15 483.64 483.64 -483.64 484.15 483.64zm1746.4 -1939.66l684.52 0 0 -1368.54 -684.52 0.01 0 684.52 -684.53 0 0 684.02 684.53 -0.01zm-1368.54 -1368.53l0 684.52 684.01 0 0 -684.52 684.53 0 0 -684.52 -1368.54 -0.01 0 684.53z"/>
  <polygon class="fil1" points="3016.79,19600.47 3016.79,18905.77 2321.59,18905.78 2321.59,20286.52 3016.79,20286.52 "/>
  <polygon class="fil1" points="4861.31,17638.95 4861.31,18334.16 4166.11,18334.16 4166.11,17638.95 "/>
  <polygon class="fil1" points="2392.59,25535.55 2392.59,26230.75 1697.39,26230.75 1697.39,25535.55 "/>
  <path class="fil1" d="M4298.36 21608.28l695.21 0 0 695.2 -695.21 0 0 -695.2zm-694.69 695.2l695.2 0 0 695.2 -695.2 0 0 -695.2zm2033.23 -6087.99l0 -1389.9 -694.7 0 0 2085.1 694.7 0 0 -695.2zm-643.33 9704.37l0 695.2 -695.21 0 0 694.7 1389.9 0 0 -1389.9 -694.69 0zm-3991.19 1589.76l0 1389.9 -694.7 0 0 695.21 1389.9 0 0 -2085.1 -695.2 -0.01zm1659.43 -13056.3l-491.27 -491.27 -491.27 491.27 -491.78 491.27 491.78 491.78 491.27 -491.78 491.27 491.78 491.78 -491.78 -491.78 -491.27zm0 1965.59l491.78 -491.27 -491.78 -491.27 -491.27 491.27 -491.27 -491.27 -491.78 491.27 491.78 491.27 491.27 491.78 491.27 -491.78z"/>
 </g>
</svg>
