<?xml version="1.0" encoding="UTF-8"?>
<!DOCTYPE svg PUBLIC "-//W3C//DTD SVG 1.1//EN" "http://www.w3.org/Graphics/SVG/1.1/DTD/svg11.dtd">
<!-- Creator: CorelDRAW 2018 (64 Bit) -->
<svg xmlns="http://www.w3.org/2000/svg" xml:space="preserve" width="128.304mm" height="291.012mm" version="1.1" style="shape-rendering:geometricPrecision; text-rendering:geometricPrecision; image-rendering:optimizeQuality; fill-rule:evenodd; clip-rule:evenodd"
viewBox="0 0 12830.44 29101.18"
 xmlns:xlink="http://www.w3.org/1999/xlink">
 <defs>
  <style type="text/css">
   <![CDATA[
    .fil0 {fill:#8ACCEA}
   ]]>
  </style>
 </defs>
 <g id="Camada_x0020_1">
  <metadata id="CorelCorpID_0Corel-Layer"/>
  <g id="_4.svg">
   <polygon class="fil0" points="12830.44,8979.91 11117.6,8979.91 11117.6,7267.07 12830.44,7267.06 "/>
   <polygon class="fil0" points="10003.52,20979.56 8290.68,20979.56 8290.68,19266.72 10003.52,19266.71 "/>
   <path class="fil0" d="M5138.52 12792.68l0 -1712.84 1712.85 -0.01 0 -1712.84 -3425.69 0 0 3425.68 1712.84 0.01zm3917.22 14595.66l-1710.7 0 0 -1712.84 -1712.84 -0.01 0 3425.68 3423.54 0.01 0 -1712.84zm-3917.22 -9834.91l-3425.68 0 0 -1712.84 -1712.84 0 0 3425.68 5138.52 0.01 0 -1712.85zm940.13 -13919.54l1210.58 1210.58 1210.58 -1210.58 1212.73 -1210.58 -1212.73 -1210.58 -1210.58 -1212.73 -1210.58 1212.73 1210.58 1210.58 -1210.58 1210.58z"/>
  </g>
 </g>
</svg>
