<?xml version="1.0" encoding="UTF-8"?>
<!DOCTYPE svg PUBLIC "-//W3C//DTD SVG 1.1//EN" "http://www.w3.org/Graphics/SVG/1.1/DTD/svg11.dtd">
<!-- Creator: CorelDRAW 2018 (64 Bit) -->
<svg xmlns="http://www.w3.org/2000/svg" xml:space="preserve" width="677.333mm" height="307.783mm" version="1.1" style="shape-rendering:geometricPrecision; text-rendering:geometricPrecision; image-rendering:optimizeQuality; fill-rule:evenodd; clip-rule:evenodd"
viewBox="0 0 67733.34 30778.31"
 xmlns:xlink="http://www.w3.org/1999/xlink">
 <defs>
  <style type="text/css">
   <![CDATA[
    .fil3 {fill:#2F5BBE}
    .fil4 {fill:#FEA200}
    .fil2 {fill:#2F5BBE;fill-rule:nonzero}
    .fil6 {fill:#2F5BBE;fill-rule:nonzero}
    .fil1 {fill:#F3AD47;fill-rule:nonzero}
    .fil5 {fill:#FEA200;fill-rule:nonzero}
    .fil7 {fill:#FEA200;fill-rule:nonzero}
    .fil0 {fill:#FF65AC;fill-rule:nonzero}
   ]]>
  </style>
 </defs>
 <g id="Camada_x0020_1">
  <metadata id="CorelCorpID_0Corel-Layer"/>
  <polygon class="fil0" points="7314.82,27801.31 7314.98,29289.81 5813,29289.8 5809.38,30777.4 8820.59,30778.3 8820.59,27801.34 "/>
  <polygon class="fil0" points="65773.7,25189.49 66608.88,26024.69 67490.05,25147.88 65769.43,23427.26 64066.99,25129.68 64950.26,26012.95 "/>
  <polygon class="fil0" points="64520.88,4739.32 65814.94,4739.32 65814.94,3486.39 64520.88,3486.39 "/>
  <polygon class="fil0" points="64575.35,15416.38 65773.2,15416.38 67079.95,17867.76 67079.95,15361.92 65827.64,15361.92 65827.64,14108.99 63323.03,14108.99 63323.03,16669.31 64520.89,16669.31 64520.89,17867.76 "/>
  <polygon class="fil0" points="7023.79,6972.79 8711.68,6972.79 8711.68,2124.53 7023.79,2124.53 "/>
  <polygon class="fil1" points="61744.06,2015.58 60981.78,2015.08 60981.78,3649.81 61744.06,3649.81 61744.06,4466.94 62615.21,4466.94 62615.21,3649.81 63431.95,3649.81 63431.95,1198.46 61744.06,1198.46 "/>
  <polygon class="fil0" points="980.06,14817.18 2613.51,14817.18 2613.51,11548.67 980.06,11548.67 "/>
  <polygon class="fil2" points="66372.13,20264.66 65555.42,20264.66 65555.42,21953.39 67188.85,21953.39 67188.85,21136.26 67733.34,21136.26 67733.34,19447.53 66372.13,19447.53 "/>
  <polygon class="fil2" points="57442.65,29089.58 59892.82,29089.58 59892.82,28218 58313.82,28218 58313.82,27400.87 57442.65,27400.87 "/>
  <polygon class="fil0" points="5227.01,10295.76 6914.9,10295.76 6914.9,8661.51 5227.01,8661.51 "/>
  <polygon class="fil3" points="544.48,30768.65 2994.63,30768.65 2994.63,30124.61 1361.2,30124.61 1361.2,29307.48 544.48,29307.48 "/>
  <polygon class="fil0" points="19982.42,29253.01 20853.59,29253.01 20853.59,28490.37 21615.86,28490.37 21615.86,27618.77 19982.42,27618.77 "/>
  <polygon class="fil0" points="21246.48,23762.96 21791.11,24338.52 21247.69,24907.99 21820.64,25507.27 22990.35,24363.58 21846.95,23193 "/>
  <polygon class="fil0" points="26026.14,27891.14 28476.31,27891.14 28476.31,27074.02 26026.14,27074.02 "/>
  <polygon class="fil3" points="8221.65,26529.27 10671.81,26529.27 10671.81,25712.15 8221.65,25712.15 "/>
  <polygon class="fil4" points="42892.34,10773.32 45341.74,13250.87 45749.03,12868.79 43272.72,10418.18 "/>
  <polygon class="fil0" points="-0,28599.31 1143.41,28599.31 1143.41,26965.07 -0,26965.07 "/>
  <polygon class="fil2" points="55196.82,19216.16 55580.75,19567.51 58055.04,17118.59 57703.88,16734.47 "/>
  <path class="fil4" d="M871.17 20537.03l0 272.38c583.54,0 1015.94,-180.8 1376.85,-529.1 385.93,-372.45 583.28,-843.5 583.28,-1432l-272.24 0c-21.04,944.64 -727.75,1688.72 -1687.89,1688.72z"/>
  <polygon class="fil0" points="66848.96,11481 67720.13,12379.01 67733.33,10622.61 "/>
  <polygon class="fil2" points="62669.66,24186.85 63540.83,24186.85 63540.83,23369.73 62669.66,23369.73 "/>
  <polygon class="fil3" points="5771.49,26093.47 6642.66,26093.47 6642.66,25276.35 5771.49,25276.35 "/>
  <polygon class="fil2" points="61362.91,29852.24 62179.63,29852.24 62179.63,29035.11 61362.91,29035.11 "/>
  <polygon class="fil0" points="23630.43,27455.34 24447.15,27455.34 24447.15,26638.22 23630.43,26638.22 "/>
  <polygon class="fil1" points="67078.71,871.6 67732.09,871.6 67732.09,0 67078.71,0 "/>
  <polygon class="fil4" points="48240.94,7027.26 50854.44,7027.26 50854.44,6863.84 48240.94,6863.84 "/>
  <polygon class="fil2" points="61471.81,24731.6 61580.7,24731.6 61580.7,22062.33 61471.81,22062.33 "/>
  <polygon class="fil4" points="6860.45,24350.27 9473.96,24350.27 9473.96,24241.32 6860.45,24241.32 "/>
  <polygon class="fil3" points="15994.91,30765.49 16878.89,30778.31 16456.11,30329.69 "/>
  <polygon class="fil3" points="17138.32,30765.49 18022.3,30778.31 17599.52,30329.69 "/>
  <circle class="fil1" cx="57851.01" cy="13094.88" r="1932.91"/>
  <circle class="fil1" cx="56713.64" cy="7465.3" r="306.16"/>
  <circle class="fil4" cx="5308.68" cy="14331.46" r="1932.91"/>
  <circle class="fil4" cx="4266.08" cy="8706.14" r="306.16"/>
  <rect class="fil4" x="9746.18" y="7027.25" width="871.17" height="2451.38"/>
  <rect class="fil4" transform="matrix(6.0398E-14 2.2805 -2.2805 6.0398E-14 11407.5 7817.35)" width="382.01" height="1074.93"/>
  <polygon class="fil4" points="12686.39,5794.06 13564.62,5794.06 13564.62,4943.75 12686.39,4943.75 "/>
  <polygon class="fil1" points="60625.36,6794.99 61503.58,6794.99 61503.58,5944.68 60625.36,5944.68 "/>
  <polygon class="fil1" points="67459.86,7625.6 67732.1,7625.6 67732.1,5937.77 67459.86,5937.77 "/>
  <polygon class="fil1" points="65732.27,4109.57 65164.66,4677.17 65760.55,5276.03 66929.91,4106.67 65772.92,2949.67 65172.64,3549.95 "/>
  <path class="fil5" d="M42691.66 3100.21c488.76,0 931.04,-197.78 1250.95,-517.53 319.45,-319.29 517.05,-761.05 517.05,-1249.51l386.18 0c0,594.07 -241.43,1132.43 -631.72,1522.53 -389.85,389.65 -928.16,630.69 -1522.46,630.69l0 -386.18z"/>
  <g id="_7.svg">
   <circle class="fil4" cx="43584.84" cy="6445.98" r="72.4"/>
   <circle class="fil4" cx="43584.84" cy="6982.12" r="72.4"/>
   <circle class="fil4" cx="43584.84" cy="7518.26" r="72.4"/>
   <circle class="fil4" cx="43584.84" cy="8054.4" r="72.4"/>
   <circle class="fil4" cx="43584.84" cy="8592.26" r="72.4"/>
  </g>
  <g id="_7.svg_0">
   <circle class="fil2" transform="matrix(-2.0415E-15 -0.0770828 -0.0770827 2.0415E-15 62108.5 17461.4)" r="939.3"/>
   <circle class="fil2" transform="matrix(-2.0415E-15 -0.0770828 -0.0770827 2.0415E-15 61572.4 17461.4)" r="939.3"/>
   <circle class="fil2" transform="matrix(-2.0415E-15 -0.0770828 -0.0770827 2.0415E-15 61036.3 17461.4)" r="939.3"/>
   <circle class="fil2" transform="matrix(-2.0415E-15 -0.0770828 -0.0770827 2.0415E-15 60500.1 17461.4)" r="939.3"/>
   <circle class="fil2" transform="matrix(-2.0415E-15 -0.0770828 -0.0770827 2.0415E-15 59962.3 17461.4)" r="939.3"/>
  </g>
  <rect class="fil0" x="65773.19" y="15416.37" width="1306.75" height="2451.38"/>
  <rect class="fil0" transform="matrix(6.0398E-14 2.2805 -2.2805 6.0398E-14 66972.3 16561)" width="573.01" height="1074.93"/>
  <path class="fil2" d="M64734.93 15713.57c0,488.76 197.79,931.04 517.54,1250.95 319.29,319.45 761.05,517.06 1249.51,517.06l0 386.18c-594.07,0 -1132.43,-241.44 -1522.53,-631.72 -389.65,-389.86 -630.7,-928.17 -630.7,-1522.47l386.18 0z"/>
  <polygon class="fil2" points="65119.82,25358.5 64303.1,25357.29 64303.1,26147.94 63486.39,26147.94 63486.39,27019.55 64303.1,27019.55 64303.1,27836.67 65119.82,27836.67 65119.82,27019.55 65936.56,27019.55 65936.56,26147.94 65119.82,26147.94 "/>
  <polygon class="fil2" points="60810.97,21097.73 60243.36,21665.33 60839.25,22264.19 62008.61,21094.83 60851.62,19937.83 60251.34,20538.11 "/>
  <polygon class="fil2" points="59910.39,25201.2 59910.4,26003.92 59065.58,26006.02 59065.58,24352.29 60701.82,24352.29 60701.82,25201.21 "/>
  <path class="fil2" d="M56761.37 30767.82c-86.18,-102.73 -177.97,-194.46 -274.03,-275.03 -351.17,-294.59 -760.86,-441.91 -1168.96,-441.91l0 0.77c-408.71,0 -818.42,147.05 -1168.98,441.12 -96.06,80.59 -187.82,172.29 -274.03,275.05l-295.64 -247.39c101.05,-120.45 208.98,-228.25 322.28,-323.3 422.53,-354.44 919.04,-531.66 1416.37,-531.66l0 0.78c497.9,0.02 994.46,176.99 1416.35,530.9 113.3,95.03 221.26,202.85 322.28,323.28l-295.64 247.39z"/>
  <path class="fil2" d="M61048.92 30348.37c232.1,0 420.27,188.16 420.27,420.27l-840.55 0c0,-232.11 188.17,-420.27 420.28,-420.27z"/>
  <polygon class="fil4" points="1502.45,28137.33 3951.85,30614.88 4359.15,30232.8 1882.83,27782.19 "/>
  <polygon class="fil0" points="30911.02,26205.78 31478.63,26773.38 30882.74,27372.24 29713.38,26202.88 30870.37,25045.88 31470.65,25646.16 "/>
  <polygon class="fil0" points="35087.11,24382.29 35903.83,24382.29 35903.83,23565.17 35087.11,23565.17 "/>
  <polygon class="fil0" points="34769.22,28293.59 35531.5,28294.09 35531.5,26659.37 34769.22,26659.37 34769.22,25842.24 33898.07,25842.24 33898.07,26659.37 33081.32,26659.37 33081.32,29110.71 34769.22,29110.71 "/>
  <polygon class="fil6" points="16933.21,26897.04 17695.49,26897.54 17695.49,25262.81 16933.21,25262.81 16933.21,24445.68 16062.06,24445.68 16062.06,25262.81 15245.32,25262.81 15245.32,27714.16 16933.21,27714.16 "/>
  <polygon class="fil6" points="17212.33,22992.08 18029.05,22992.08 18029.05,22174.96 17212.33,22174.96 "/>
  <polygon class="fil6" points="13485.99,24240.24 12941.36,24815.8 13484.78,25385.27 12911.83,25984.55 11742.11,24840.86 12885.52,23670.28 "/>
  <circle class="fil4" cx="15405.21" cy="24840.55" r="306.16"/>
  <g id="_2857245935392">
   <rect class="fil3" x="7443.9" y="27240.97" width="871.17" height="2451.38"/>
   <rect class="fil3" transform="matrix(6.0398E-14 2.2805 -2.2805 6.0398E-14 9105.2 28031.1)" width="382.01" height="1074.93"/>
  </g>
  <polygon class="fil6" points="3383.41,22411.22 3954.25,22981.93 3378.3,23557.86 3947.34,24129.68 5102.35,22975.36 3960.82,21833.84 "/>
  <g id="_2857245936736">
   <polygon class="fil0" points="5395.18,19502.01 7083.07,19502.01 7083.07,17867.76 5395.18,17867.76 "/>
   <polygon class="fil0" points="3707.29,21136.26 5395.18,21136.26 5395.18,19502.01 3707.29,19502.01 "/>
  </g>
  <path class="fil7" d="M18104.93 30768.64c17.66,-95.87 26.89,-194.66 26.89,-295.62 0,-448.21 -181.69,-854.02 -475.37,-1147.71 -293.68,-293.68 -699.5,-475.37 -1147.71,-475.37 -448.23,0 -854.02,181.69 -1147.7,475.37 -293.69,293.69 -475.37,699.5 -475.37,1147.71 0,100.96 9.23,199.75 26.88,295.62l-391.42 0c-14.23,-96.49 -21.64,-195.19 -21.64,-295.62 0,-554.75 224.92,-1057.12 588.52,-1420.73 363.61,-363.6 865.96,-588.53 1420.73,-588.53 554.76,0 1057.13,224.93 1420.73,588.53 363.61,363.61 588.53,865.98 588.53,1420.73 0,100.43 -7.41,199.13 -21.64,295.62l-391.43 0z"/>
  <g id="_2857245936512">
   <polygon class="fil0" points="25044.38,28640.82 25915.56,28640.82 25915.56,30768.64 25044.38,30768.64 "/>
   <polygon class="fil0" points="26705.66,29430.92 26705.66,30302.1 24254.28,30302.1 24254.28,29430.92 "/>
  </g>
  <g id="_2857245939776">
   <polygon class="fil0" points="29198.77,30288.03 30042.72,30288.03 30042.72,29470.9 29198.77,29470.9 "/>
   <polygon class="fil0" points="29198.77,30768.64 29198.77,30288.03 28354.83,30288.03 28354.83,30768.64 "/>
  </g>
  <polygon class="fil0" points="26449.72,25167.41 28129.19,25167.41 28129.19,24401.1 28955.83,24401.1 28955.83,22720.8 27276.36,22720.8 27276.36,23487.12 26449.72,23487.12 "/>
  <polygon class="fil6" points="3795.47,27070.07 2988.28,27069.98 2988.29,27884.49 2181.58,27886.45 2181.09,26253.52 3795.45,26253.52 "/>
  <g id="_7.svg_1">
   <circle class="fil4" cx="2253.49" cy="23678.52" r="72.4"/>
   <circle class="fil4" cx="2253.49" cy="24214.66" r="72.4"/>
   <circle class="fil4" cx="2253.49" cy="24750.8" r="72.4"/>
   <circle class="fil4" cx="2253.49" cy="25286.93" r="72.4"/>
   <circle class="fil4" cx="2253.49" cy="25824.8" r="72.4"/>
  </g>
  <g id="_2857245942880">
   <rect class="fil3" x="11206.43" y="29134.38" width="817.13" height="817.13"/>
   <rect class="fil3" x="12023.56" y="28317.26" width="817.13" height="817.13"/>
   <rect class="fil3" x="10389.31" y="29951.51" width="817.13" height="817.13"/>
   <rect class="fil3" x="12023.56" y="29951.51" width="817.13" height="817.13"/>
  </g>
  <g id="_2857245944672">
   <polygon class="fil0" points="1.23,4058.55 571.78,4598.46 1699.24,3522.56 2885.76,4656.93 621.41,6972.8 1.23,6367.01 "/>
   <polygon class="fil0" points="1.23,2986.58 571.78,2446.67 1699.24,3522.56 2885.76,2388.2 621.41,72.33 1.23,678.12 "/>
  </g>
  <g id="_2857245946112">
   <polygon class="fil3" points="66747.52,27019.54 67564.65,27019.54 67564.65,27836.67 66747.52,27836.67 "/>
   <polygon class="fil3" points="67564.65,26202.42 67732.1,26202.42 67732.1,27019.54 67564.65,27019.54 "/>
   <polygon class="fil3" points="65930.4,27836.67 66747.52,27836.67 66747.52,28653.8 65930.4,28653.8 "/>
   <polygon class="fil3" points="67564.65,27836.67 67732.1,27836.67 67732.1,28653.8 67564.65,28653.8 "/>
  </g>
  <polygon class="fil6" points="8587.77,23800.78 10267.24,23800.78 10267.24,23034.46 11093.88,23034.46 11093.88,21354.16 9414.4,21354.16 9414.4,22120.48 8587.77,22120.48 "/>
 </g>
</svg>
