<?xml version="1.0" encoding="UTF-8"?>
<!DOCTYPE svg PUBLIC "-//W3C//DTD SVG 1.1//EN" "http://www.w3.org/Graphics/SVG/1.1/DTD/svg11.dtd">
<!-- Creator: CorelDRAW 2018 (64 Bit) -->
<svg xmlns="http://www.w3.org/2000/svg" xml:space="preserve" width="25.4mm" height="11.5364mm" version="1.1" style="shape-rendering:geometricPrecision; text-rendering:geometricPrecision; image-rendering:optimizeQuality; fill-rule:evenodd; clip-rule:evenodd"
viewBox="0 0 2554.75 1160.34"
 xmlns:xlink="http://www.w3.org/1999/xlink">
 <defs>
  <style type="text/css">
   <![CDATA[
    .fil2 {fill:#2F5BBE;fill-rule:nonzero}
    .fil5 {fill:#AE6AAC;fill-rule:nonzero}
    .fil1 {fill:#BEE5FE;fill-rule:nonzero}
    .fil3 {fill:#F3AD47;fill-rule:nonzero}
    .fil0 {fill:#FF65AC;fill-rule:nonzero}
    .fil4 {fill:white;fill-rule:nonzero}
   ]]>
  </style>
 </defs>
 <g id="Camada_x0020_1">
  <metadata id="CorelCorpID_0Corel-Layer"/>
  <path class="fil0" d="M2554.75 172.19c0,38.07 -30.86,68.93 -68.92,68.93 -38.07,0 -68.93,-30.86 -68.93,-68.93 0,-38.06 30.86,-68.92 68.93,-68.92 38.06,0 68.92,30.86 68.92,68.92z"/>
  <g id="_2857004386272">
   <polygon class="fil1" points="2477.05,947.64 2467.11,947.64 2467.11,914.53 2477.05,914.53 "/>
   <polygon class="fil1" points="2460.49,954.26 2460.49,964.19 2427.38,964.19 2427.38,954.26 "/>
   <polygon class="fil1" points="2467.11,970.81 2477.05,970.81 2477.05,1003.92 2467.11,1003.92 "/>
   <polygon class="fil1" points="2483.66,964.19 2483.66,954.26 2516.78,954.26 2516.78,964.19 "/>
  </g>
  <g id="_2857004387040">
   <g>
    <polygon class="fil1" points="2416.15,460.35 2517.63,460.35 2517.63,431.35 2416.15,431.35 "/>
    <polygon class="fil1" points="2292.75,387.86 2249.42,387.86 2249.42,358.86 2267.09,358.86 2245.29,334.22 2310.54,257.39 2387.15,257.39 2387.15,228.39 2335.16,228.39 2380.47,175.02 2287.63,175.02 2172.4,312.23 2172.4,213.88 2234.92,213.88 2234.92,184.9 2172.4,184.9 2172.4,175.02 2095.86,175.02 2095.86,300.88 2126.19,300.88 2126.19,329.87 2095.86,329.87 2095.86,510.93 2172.4,510.93 2172.4,368.43 2296.18,510.93 2401.64,510.93 "/>
    <path class="fil1" d="M1603.03 175.02l-70.84 0 -18.62 46.12 39.95 0 0 29 -51.65 0 -38.04 94.23 -33.54 0 0 29 21.84 0 -55.53 137.56 82.25 0 24.83 -67.18 127.84 0 6.15 16.6 46.34 0 0 29 -35.62 0 7.99 21.58 82.23 0 -135.58 -335.91zm-73.28 201.54l0 0 1.23 -3.2 0.8 0 0 -2.11 35.42 -92.41 0.8 0 37.48 97.72 -75.74 0z"/>
    <path class="fil1" d="M1942.68 441.72c-76.94,0 -110.75,-53.76 -110.75,-98.95 0,-8.94 1.42,-18.24 4.18,-27.4l79.85 0 0 -29 -65.43 0c17.41,-23.97 47.45,-42.14 92.14,-42.14 39.09,0 65.97,20.78 65.97,20.78l32.57 -65.16c0,0 -37.46,-30.95 -110.35,-30.95 -44.44,0 -86.97,17.04 -119.74,44.98l39.6 0 0 29 -67.04 0c-18.96,24.96 -31.4,54.73 -34.18,86.99l-29.27 0 0 28.99 29.42 0c3.78,39.01 21.86,74.23 48.53,101.49l52.53 0 0 29 -16.1 0c28.55,17.52 61.88,27.7 96.25,27.7 72.89,0 110.35,-30.95 110.35,-30.95l-32.57 -65.15c0,0 -26.89,20.77 -65.97,20.77z"/>
    <polygon class="fil1" points="1281.7,175.02 1281.7,213.88 1314.32,213.88 1314.32,242.88 1281.7,242.88 1281.7,308.97 1173.4,308.97 1173.4,175.02 1096.85,175.02 1096.85,213.88 1140.34,213.88 1140.34,242.88 1096.85,242.88 1096.85,373.36 1038.86,373.36 1038.86,402.36 1096.85,402.36 1096.85,510.93 1173.4,510.93 1173.4,489.34 1256.32,489.34 1256.32,460.35 1173.4,460.35 1173.4,376.16 1281.7,376.16 1281.7,510.93 1358.26,510.93 1358.26,175.02 "/>
   </g>
   <g>
    <g>
     <polygon class="fil2" points="2387.15,460.35 2488.63,460.35 2488.63,431.35 2387.15,431.35 "/>
     <polygon class="fil2" points="2263.76,387.86 2220.43,387.86 2220.43,358.86 2238.1,358.86 2216.29,334.22 2281.54,257.39 2358.15,257.39 2358.15,228.39 2306.16,228.39 2351.47,175.02 2258.64,175.02 2143.4,312.23 2143.4,213.88 2205.92,213.88 2205.92,184.9 2143.4,184.9 2143.4,175.02 2066.86,175.02 2066.86,300.88 2097.19,300.88 2097.19,329.87 2066.86,329.87 2066.86,510.93 2143.4,510.93 2143.4,368.43 2267.19,510.93 2372.64,510.93 "/>
     <path class="fil2" d="M1574.04 175.02l-70.85 0 -18.61 46.12 39.94 0 0 29 -51.65 0 -38.04 94.23 -33.54 0 0 29 21.84 0 -55.52 137.56 82.24 0 24.83 -67.18 127.85 0 6.14 16.6 46.34 0 0 29 -35.62 0 7.99 21.58 82.23 0 -135.57 -335.91zm-73.29 201.54l0 0 1.23 -3.2 0.8 0 0 -2.11 35.42 -92.41 0.81 0 37.47 97.72 -75.74 0z"/>
     <path class="fil2" d="M1913.69 441.72c-76.94,0 -110.75,-53.76 -110.75,-98.95 0,-8.94 1.42,-18.24 4.19,-27.4l79.84 0 0 -29 -65.43 0c17.41,-23.97 47.45,-42.14 92.14,-42.14 39.09,0 65.97,20.78 65.97,20.78l32.57 -65.16c0,0 -37.46,-30.95 -110.35,-30.95 -44.44,0 -86.97,17.04 -119.74,44.98l39.6 0 0 29 -67.04 0c-18.96,24.96 -31.4,54.73 -34.17,86.99l-29.28 0 0 28.99 29.42 0c3.78,39.01 21.86,74.23 48.53,101.49l52.53 0 0 29 -16.09 0c28.54,17.52 61.88,27.7 96.24,27.7 72.89,0 110.35,-30.95 110.35,-30.95l-32.57 -65.15c0,0 -26.89,20.77 -65.97,20.77z"/>
     <polygon class="fil2" points="1252.7,175.02 1252.7,213.88 1285.32,213.88 1285.32,242.88 1252.7,242.88 1252.7,308.97 1144.41,308.97 1144.41,175.02 1067.85,175.02 1067.85,213.88 1111.34,213.88 1111.34,242.88 1067.85,242.88 1067.85,373.36 1009.87,373.36 1009.87,402.36 1067.85,402.36 1067.85,510.93 1144.41,510.93 1144.41,489.34 1227.33,489.34 1227.33,460.35 1144.41,460.35 1144.41,376.16 1252.7,376.16 1252.7,510.93 1329.27,510.93 1329.27,175.02 "/>
    </g>
   </g>
  </g>
  <g id="_2857004394784">
   <g>
    <polygon class="fil1" points="1293.43,622.2 1293.43,554.92 1098.93,554.92 1098.93,572.85 1130.39,572.85 1130.39,601.69 1098.93,601.69 1098.93,638.79 1056.22,638.79 1056.22,667.63 1098.93,667.63 1098.93,783.02 1130.39,783.02 1130.39,811.87 1098.93,811.87 1098.93,891.3 1175.59,891.3 1175.59,756.35 1284.45,756.35 1284.45,689.07 1175.59,689.07 1175.59,622.2 "/>
    <path class="fil1" d="M2403.21 622.2l0 -67.28 -236.48 0 0 67.28 79.91 0 0 206.15 -40.63 0 0 28.86 40.63 0 0 34.1 76.66 0 0 -178.34 35.18 0 0 -28.85 -35.18 0 0 -61.92 79.91 0zm-98.3 -49.35l0 0 65.94 0 0 28.85 -65.94 0 0 -28.85z"/>
    <path class="fil1" d="M2074.13 762.42l-30.05 0c-5.71,-14.18 -15.68,-26.6 -27.68,-37.09l-65.9 0 0 -28.85 18.38 0c-37.54,-15.97 -68.38,-29.31 -68.38,-47.78 0,-18.35 13.86,-30.17 39.96,-30.17 34.65,0 68.09,23.24 68.09,23.24l30.99 -61.16c0,0 -43.22,-31.8 -104.38,-31.8 -54.23,0 -109.68,39.96 -109.68,102.75 0,1.25 0.1,2.47 0.16,3.71l-15.25 0 0 28.85 22.29 0c9.86,21.58 29.49,40.35 56.82,53.88 39.95,19.98 75.84,30.99 75.84,55.45 0,31.39 -31.81,33.02 -48.52,33.02 -37.52,0 -82.37,-37.91 -82.37,-37.91l-11.42 19.19 16.2 0 0 28.85 -33.37 0 -9.75 16.37c0,0 47.71,44.45 126.4,44.45 65.01,0 125.57,-27.62 126.75,-106.15l24.87 0 0 -28.85z"/>
    <g>
     <polygon class="fil1" points="1644.86,568.72 1644.86,554.92 1452.41,554.92 1452.41,679.99 1418.87,679.99 1418.87,708.84 1452.41,708.84 1452.41,844.84 1488.93,844.84 1488.93,873.68 1452.41,873.68 1452.41,891.3 1644.86,891.3 1644.86,824.03 1529.07,824.03 1529.07,815.99 1529.07,787.14 1529.07,756.35 1639.98,756.35 1639.98,737.69 1600.21,737.69 1600.21,708.84 1639.98,708.84 1639.98,689.07 1529.07,689.07 1529.07,622.2 1644.86,622.2 1644.86,597.57 1666.14,597.57 1666.14,568.72 "/>
    </g>
   </g>
   <g>
    <g>
     <polygon class="fil2" points="1264.58,622.2 1264.58,554.92 1070.09,554.92 1070.09,572.85 1101.55,572.85 1101.55,601.69 1070.09,601.69 1070.09,638.79 1027.37,638.79 1027.37,667.63 1070.09,667.63 1070.09,783.02 1101.55,783.02 1101.55,811.87 1070.09,811.87 1070.09,891.3 1146.74,891.3 1146.74,756.35 1255.61,756.35 1255.61,689.07 1146.74,689.07 1146.74,622.2 "/>
     <path class="fil2" d="M2374.36 622.2l0 -67.28 -236.48 0 0 67.28 79.91 0 0 206.15 -40.63 0 0 28.86 40.63 0 0 34.1 76.66 0 0 -178.34 35.18 0 0 -28.85 -35.18 0 0 -61.92 79.91 0zm-98.3 -49.35l0 0 65.94 0 0 28.85 -65.94 0 0 -28.85z"/>
     <path class="fil2" d="M2045.28 762.42l-30.05 0c-5.72,-14.18 -15.68,-26.6 -27.69,-37.09l-65.89 0 0 -28.85 18.38 0c-37.54,-15.97 -68.38,-29.31 -68.38,-47.78 0,-18.35 13.86,-30.17 39.96,-30.17 34.65,0 68.08,23.24 68.08,23.24l30.99 -61.16c0,0 -43.22,-31.8 -104.37,-31.8 -54.23,0 -109.68,39.96 -109.68,102.75 0,1.25 0.09,2.47 0.16,3.71l-15.25 0 0 28.85 22.29 0c9.86,21.58 29.49,40.35 56.81,53.88 39.96,19.98 75.84,30.99 75.84,55.45 0,31.39 -31.8,33.02 -48.52,33.02 -37.51,0 -82.36,-37.91 -82.36,-37.91l-11.43 19.19 16.21 0 0 28.85 -33.37 0 -9.75 16.37c0,0 47.71,44.45 126.4,44.45 65.01,0 125.57,-27.62 126.75,-106.15l24.87 0 0 -28.85z"/>
     <g>
      <polygon class="fil2" points="1616.02,568.72 1616.02,554.92 1423.57,554.92 1423.57,679.99 1390.02,679.99 1390.02,708.84 1423.57,708.84 1423.57,844.84 1460.09,844.84 1460.09,873.68 1423.57,873.68 1423.57,891.3 1616.02,891.3 1616.02,824.03 1500.22,824.03 1500.22,815.99 1500.22,787.14 1500.22,756.35 1611.13,756.35 1611.13,737.69 1571.36,737.69 1571.36,708.84 1611.13,708.84 1611.13,689.07 1500.22,689.07 1500.22,622.2 1616.02,622.2 1616.02,597.57 1637.29,597.57 1637.29,568.72 "/>
     </g>
    </g>
   </g>
  </g>
  <g id="_2857004399232">
   <polygon class="fil3" points="1622.25,1112.29 1069.12,1112.29 1069.12,962.26 1690.45,962.26 "/>
   <polygon class="fil0" points="1672.93,1112.29 1652.47,1112.29 1720.66,962.26 1741.13,962.26 "/>
   <polygon class="fil0" points="1719.74,1112.29 1699.28,1112.29 1767.47,962.26 1787.93,962.26 "/>
   <polygon class="fil0" points="1766.54,1112.29 1746.08,1112.29 1814.27,962.26 1834.73,962.26 "/>
   <g>
    <path class="fil4" d="M1186.87 1007.79l0 65.49c0,0.63 -0.23,1.18 -0.67,1.63 -0.44,0.44 -0.99,0.66 -1.62,0.66l-14.4 0c-0.64,0 -1.18,-0.22 -1.63,-0.66 -0.44,-0.45 -0.66,-1 -0.66,-1.63l0 -30.88c0,-0.64 -0.29,-0.99 -0.88,-1.06 -0.56,-0.07 -1.05,0.16 -1.44,0.67l-16.14 25.98c-0.32,0.51 -0.83,0.77 -1.54,0.77 -0.7,0 -1.25,-0.26 -1.63,-0.77l-16.14 -25.98c-0.32,-0.51 -0.77,-0.74 -1.35,-0.67 -0.57,0.07 -0.88,0.41 -0.88,1.06l0 30.88c0,0.63 -0.21,1.18 -0.66,1.63 -0.44,0.44 -0.99,0.66 -1.62,0.66l-14.4 0c-0.64,0 -1.18,-0.22 -1.63,-0.66 -0.43,-0.45 -0.66,-1 -0.66,-1.63l0 -65.49c0,-0.64 0.23,-1.19 0.66,-1.63 0.45,-0.45 1,-0.67 1.63,-0.67l13.36 0c0.63,0 1.31,0.19 2,0.57 0.69,0.38 1.21,0.83 1.53,1.35l18.46 27.04c0.38,0.51 0.83,0.76 1.34,0.76 0.51,0 0.94,-0.25 1.25,-0.76l18.46 -27.04c0.38,-0.51 0.93,-0.97 1.62,-1.35 0.7,-0.38 1.37,-0.57 2,-0.57l13.37 0c0.63,0 1.18,0.22 1.62,0.67 0.44,0.44 0.67,0.99 0.67,1.63z"/>
    <path class="fil4" d="M1227.51 1007.6c0.26,-0.58 0.69,-1.07 1.3,-1.49 0.61,-0.42 1.26,-0.62 1.96,-0.62l13.43 0c0.64,0 1.26,0.2 1.87,0.62 0.6,0.42 1.04,0.91 1.3,1.49l27.99 65.2c0.26,0.57 0.2,1.19 -0.14,1.82 -0.35,0.63 -1.04,0.96 -2.06,0.96l-16.39 0c-0.7,0 -1.37,-0.2 -1.97,-0.61 -0.6,-0.42 -1.07,-0.92 -1.39,-1.49l-2.58 -5.75c-0.32,-0.58 -0.78,-1.08 -1.4,-1.49 -0.6,-0.41 -1.23,-0.62 -1.86,-0.62l-20.24 0c-0.7,0 -1.36,0.21 -1.97,0.62 -0.6,0.41 -1.04,0.91 -1.29,1.49l-2.69 5.75c-0.26,0.57 -0.68,1.07 -1.3,1.49 -0.6,0.41 -1.23,0.61 -1.86,0.61l-16.5 0c-0.32,0 -0.65,-0.06 -1.01,-0.19 -0.35,-0.13 -0.63,-0.32 -0.86,-0.57 -0.22,-0.25 -0.37,-0.57 -0.43,-0.96 -0.06,-0.38 0.03,-0.83 0.28,-1.35l27.81 -64.9zm5.66 41.71l0 0 8.53 0c0.64,0 1.11,-0.21 1.39,-0.63 0.29,-0.41 0.27,-0.92 -0.04,-1.48 -0.64,-1.6 -1.41,-3.47 -2.31,-5.61 -0.89,-2.14 -1.72,-4.13 -2.48,-5.99 -0.26,-0.57 -0.54,-0.86 -0.86,-0.86 -0.32,0 -0.61,0.29 -0.86,0.86l-4.79 11.61c-0.26,0.56 -0.26,1.07 0,1.48 0.25,0.42 0.73,0.63 1.44,0.63z"/>
    <path class="fil4" d="M1353.98 1007.69l0 65.59c0,0.63 -0.22,1.18 -0.66,1.63 -0.45,0.44 -1,0.66 -1.63,0.66l-14.16 0c-0.63,0 -1.31,-0.19 -2,-0.57 -0.71,-0.38 -1.26,-0.82 -1.64,-1.34l-24.96 -35.19c-0.39,-0.51 -0.79,-0.71 -1.2,-0.62 -0.42,0.1 -0.62,0.46 -0.62,1.11l0 34.33c0,0.63 -0.23,1.18 -0.68,1.63 -0.44,0.44 -0.99,0.66 -1.63,0.66l-14.36 0c-0.64,0 -1.19,-0.22 -1.64,-0.66 -0.45,-0.45 -0.67,-1 -0.67,-1.63l0 -65.59c0,-0.63 0.22,-1.19 0.67,-1.63 0.45,-0.44 1,-0.67 1.63,-0.67l14.38 0c0.64,0 1.31,0.18 2.01,0.53 0.7,0.35 1.25,0.78 1.63,1.29l24.93 35.19c0.38,0.51 0.77,0.73 1.2,0.66 0.41,-0.06 0.62,-0.4 0.62,-1.05l0 -34.33c0,-0.63 0.22,-1.19 0.66,-1.63 0.45,-0.44 1,-0.67 1.64,-0.67l14.19 0c0.63,0 1.18,0.23 1.62,0.67 0.45,0.44 0.67,1 0.67,1.63z"/>
    <path class="fil4" d="M1395.02 1007.6c0.25,-0.58 0.68,-1.07 1.29,-1.49 0.61,-0.42 1.27,-0.62 1.97,-0.62l13.42 0c0.64,0 1.27,0.2 1.88,0.62 0.6,0.42 1.04,0.91 1.29,1.49l28 65.2c0.26,0.57 0.2,1.19 -0.15,1.82 -0.34,0.63 -1.04,0.96 -2.05,0.96l-16.39 0c-0.7,0 -1.37,-0.2 -1.97,-0.61 -0.61,-0.42 -1.07,-0.92 -1.39,-1.49l-2.58 -5.75c-0.33,-0.58 -0.78,-1.08 -1.4,-1.49 -0.6,-0.41 -1.23,-0.62 -1.86,-0.62l-20.24 0c-0.7,0 -1.36,0.21 -1.97,0.62 -0.6,0.41 -1.04,0.91 -1.29,1.49l-2.69 5.75c-0.26,0.57 -0.68,1.07 -1.3,1.49 -0.6,0.41 -1.23,0.61 -1.86,0.61l-16.5 0c-0.32,0 -0.65,-0.06 -1.01,-0.19 -0.35,-0.13 -0.64,-0.32 -0.86,-0.57 -0.22,-0.25 -0.37,-0.57 -0.43,-0.96 -0.06,-0.38 0.03,-0.83 0.28,-1.35l27.81 -64.9zm5.66 41.71l0 0 8.53 0c0.64,0 1.11,-0.21 1.39,-0.63 0.29,-0.41 0.27,-0.92 -0.04,-1.48 -0.64,-1.6 -1.42,-3.47 -2.31,-5.61 -0.89,-2.14 -1.72,-4.13 -2.49,-5.99 -0.25,-0.57 -0.54,-0.86 -0.85,-0.86 -0.32,0 -0.61,0.29 -0.86,0.86l-4.8 11.61c-0.25,0.56 -0.25,1.07 0,1.48 0.26,0.42 0.74,0.63 1.45,0.63z"/>
    <path class="fil4" d="M1451.01 1007.79c0,-0.64 0.21,-1.19 0.66,-1.63 0.44,-0.45 0.99,-0.67 1.63,-0.67l14.39 0c0.64,0 1.18,0.22 1.63,0.67 0.44,0.44 0.66,0.99 0.66,1.63l0 38.83c0,2.48 0.4,4.55 1.21,6.19 0.79,1.62 1.8,2.9 2.99,3.83 1.18,0.93 2.44,1.58 3.79,1.96 1.36,0.38 2.57,0.57 3.66,0.57 1.1,0 2.31,-0.19 3.66,-0.57 1.35,-0.38 2.59,-1.04 3.76,-1.96 1.15,-0.94 2.12,-2.21 2.93,-3.83 0.8,-1.64 1.21,-3.7 1.21,-6.19l0 -38.83c0,-0.64 0.22,-1.19 0.67,-1.63 0.44,-0.45 0.98,-0.67 1.62,-0.67l14.4 0c0.63,0 1.18,0.22 1.63,0.67 0.43,0.44 0.66,0.99 0.66,1.63l0 38.83c0,4.54 -0.72,8.66 -2.15,12.36 -1.44,3.71 -3.5,6.87 -6.18,9.49 -2.69,2.62 -5.91,4.65 -9.68,6.09 -3.76,1.44 -7.94,2.16 -12.54,2.16 -4.6,0 -8.77,-0.72 -12.53,-2.16 -3.77,-1.44 -7,-3.47 -9.68,-6.09 -2.68,-2.63 -4.75,-5.78 -6.23,-9.49 -1.47,-3.7 -2.19,-7.83 -2.19,-12.36l0 -38.83z"/>
    <path class="fil4" d="M1537.4 1051.5c3.46,2.25 6.87,4 10.26,5.28 3.39,1.28 6.55,1.91 9.49,1.91 2.82,0 4.95,-0.39 6.42,-1.19 1.48,-0.8 2.21,-2 2.21,-3.6 0,-0.83 -0.32,-1.49 -0.97,-1.97 -0.63,-0.47 -1.48,-0.88 -2.53,-1.2 -1.06,-0.32 -2.28,-0.57 -3.69,-0.76 -1.41,-0.19 -2.85,-0.44 -4.31,-0.76 -1.41,-0.26 -3.06,-0.56 -4.94,-0.91 -1.89,-0.36 -3.82,-0.88 -5.79,-1.55 -1.99,-0.66 -3.95,-1.51 -5.9,-2.53 -1.95,-1.03 -3.69,-2.33 -5.22,-3.93 -1.54,-1.59 -2.77,-3.5 -3.7,-5.7 -0.93,-2.21 -1.39,-4.81 -1.39,-7.82 0,-4.42 0.86,-8.05 2.59,-10.93 1.72,-2.88 3.9,-5.16 6.56,-6.86 2.66,-1.68 5.61,-2.87 8.88,-3.54 3.26,-0.67 6.42,-1.01 9.48,-1.01 5.37,0 10.18,0.78 14.43,2.35 4.24,1.56 8.33,3.85 12.22,6.85 0.51,0.45 0.79,1 0.86,1.64 0.06,0.63 -0.1,1.21 -0.47,1.72l-7.48 10.64c-0.38,0.51 -0.9,0.83 -1.53,0.96 -0.64,0.13 -1.22,0 -1.73,-0.38 -3.27,-2.04 -6.31,-3.5 -9.11,-4.37 -2.81,-0.85 -5.4,-1.29 -7.76,-1.29 -0.7,0 -1.53,0.01 -2.44,0.04 -0.93,0.03 -1.81,0.16 -2.64,0.39 -0.83,0.22 -1.52,0.58 -2.06,1.1 -0.54,0.51 -0.81,1.22 -0.81,2.11 0,0.9 0.66,1.69 2.01,2.39 1.34,0.7 2.88,1.32 4.6,1.83 1.73,0.51 3.39,0.91 4.99,1.19 1.6,0.29 2.63,0.46 3.07,0.53 2.3,0.44 4.83,1.11 7.57,1.96 2.75,0.86 5.33,2.14 7.72,3.84 2.39,1.69 4.41,3.9 6.04,6.61 1.62,2.73 2.43,6.13 2.43,10.22 0,3.83 -0.66,7.14 -2.01,9.92 -1.34,2.79 -3.21,5.07 -5.6,6.86 -2.4,1.79 -5.27,3.12 -8.63,3.98 -3.36,0.86 -7.09,1.29 -11.17,1.29 -3.32,0 -6.43,-0.27 -9.29,-0.81 -2.89,-0.54 -5.57,-1.29 -8.07,-2.25 -2.48,-0.96 -4.81,-2.09 -6.95,-3.4 -2.13,-1.31 -4.1,-2.71 -5.89,-4.17 -0.51,-0.38 -0.8,-0.91 -0.86,-1.58 -0.06,-0.67 0.1,-1.27 0.48,-1.78l7.38 -10.64c0.38,-0.51 0.9,-0.82 1.54,-0.96 0.63,-0.13 1.21,-0.03 1.72,0.28z"/>
   </g>
   <g>
    <path class="fil2" d="M2317.35 1048.93c-10.91,3.44 -21.96,3.37 -32.98,3.3 -5.44,-0.04 -10.9,-0.16 -16.24,-1.49 -10.37,-2.57 -16.35,-8.88 -17.25,-19.54 -0.69,-8.37 -0.82,-16.86 0.12,-25.22 1.18,-10.39 7.48,-17.17 17.6,-19.73 8.92,-2.25 18.02,-2.29 27.14,-1.89 4.48,0.2 8.95,0.48 13.35,1.49 12.94,2.98 19.79,10.68 19.98,23.93 0.28,21.52 0.28,43.07 -0.1,64.59 -0.24,13.61 -7.41,21.1 -20.86,23.27 -3.22,0.51 -6.45,0.74 -9.7,0.74 -11.6,0.02 -23.18,-0.04 -34.78,0.06 -1.89,0.02 -2.34,-0.53 -2.23,-2.31 0.16,-2.4 0.15,-4.83 0.01,-7.24 -0.11,-1.81 0.33,-2.44 2.31,-2.42 11.6,0.11 23.19,0.04 34.79,0.06 3.87,0.01 7.68,-0.34 11.42,-1.54 4.19,-1.35 6.48,-4.11 7.09,-8.47 0.48,-3.44 0.3,-6.89 0.33,-10.33 0.03,-5.72 0.01,-11.46 0.01,-17.26zm-28.28 -8.49l0 0c1.59,0 3.18,0.02 4.77,0 4.89,-0.07 9.8,0.01 14.58,-1.3 6.24,-1.7 8.91,-5.19 8.93,-11.66 0.01,-5.45 0.01,-10.9 0,-16.35 -0.02,-8.04 -3.03,-12.15 -10.9,-13.67 -10.99,-2.12 -22.12,-2.14 -33.14,-0.26 -7.44,1.28 -10.67,5.24 -10.88,12.62 -0.17,6.07 -0.17,12.15 0,18.22 0.21,7.15 3.02,10.32 10.13,11.67 5.46,1.03 11,0.69 16.52,0.73z"/>
    <path class="fil2" d="M2088.84 1043.14c0,9.04 0,18.09 0,27.14 0,14.74 -7.99,25.3 -22.32,28.47 -13.43,2.98 -26.99,3.04 -40.38,-0.43 -7.51,-1.94 -13.91,-5.71 -17.74,-12.82 -2.26,-4.2 -3.23,-8.81 -3.25,-13.54 -0.09,-18.91 -0.13,-37.83 -0.04,-56.74 0.04,-7.05 1.6,-13.72 6.59,-19.1 4.54,-4.9 10.41,-7.46 16.78,-8.77 13.22,-2.73 26.46,-2.76 39.58,0.59 12.2,3.13 20.34,13.22 20.68,25.8 0.27,9.8 0.05,19.6 0.05,29.4 0.02,0 0.04,0 0.06,0zm-71.91 -0.21l0 0c0.02,0 0.03,0 0.05,0 0,9.6 -0.08,19.19 0.03,28.79 0.08,7.27 4.05,12.8 10.98,14.83 11.63,3.39 23.46,3.31 35.19,0.71 9.74,-2.15 13.89,-7.72 13.89,-17.69 0,-17.74 0,-35.48 0,-53.23 0,-9.16 -4.42,-15.08 -13.29,-17.19 -11.03,-2.64 -22.17,-2.5 -33.25,-0.21 -3.6,0.73 -6.92,2.19 -9.5,5.05 -3.21,3.56 -4.14,7.81 -4.12,12.43 0.05,8.84 0.02,17.67 0.02,26.51z"/>
    <path class="fil2" d="M1920.21 1098.4c-11.8,0 -23.61,-0.02 -35.4,0.03 -1.48,0.01 -2.01,-0.27 -2,-1.9 0.08,-11.17 -0.01,-22.36 0.05,-33.54 0.07,-10.05 4,-15.44 13.52,-18.62 13.76,-4.6 27.53,-9.14 41.3,-13.7 3.89,-1.29 4.27,-1.79 4.27,-5.91 0.01,-4.9 0,-9.8 0,-14.7 0,-0.48 0.01,-0.97 -0.01,-1.45 -0.23,-6.02 -1.95,-7.89 -7.99,-8.69 -2.19,-0.29 -4.39,-0.41 -6.6,-0.41 -12.97,0.01 -25.96,-0.02 -38.93,0.04 -1.58,0.01 -2.17,-0.35 -2.09,-2.03 0.14,-2.69 0.08,-5.38 0.02,-8.07 -0.03,-1.19 0.24,-1.72 1.59,-1.72 14.7,0.08 29.4,0.01 44.1,0.18 5.59,0.07 10.97,1.43 15.46,5.02 4.22,3.39 5.89,8.16 6.08,13.33 0.25,7.1 0.21,14.22 0.06,21.32 -0.13,6.33 -4.25,11.62 -10.3,13.62 -13.71,4.55 -27.42,9.04 -41.13,13.58 -7.25,2.4 -7.76,3.13 -7.76,10.77 0,6.21 0.07,12.42 -0.04,18.63 -0.03,1.83 0.37,2.41 2.32,2.4 19.53,-0.08 39.07,0 58.61,-0.11 2.19,-0.01 2.68,0.64 2.52,2.65 -0.17,2.33 -0.16,4.71 0,7.04 0.12,1.78 -0.35,2.32 -2.23,2.3 -11.81,-0.1 -23.61,-0.05 -35.41,-0.05z"/>
    <path class="fil2" d="M2178.94 1037.65c0,15.87 0.04,31.75 -0.04,47.62 -0.01,1.85 0.51,2.28 2.29,2.26 8.15,-0.1 16.29,0 24.43,-0.08 1.67,-0.02 2.1,0.5 2.03,2.09 -0.12,2.76 -0.09,5.52 -0.01,8.28 0.04,1.2 -0.37,1.5 -1.52,1.5 -23.05,-0.03 -46.11,-0.03 -69.15,-0.01 -1.14,0.01 -1.59,-0.24 -1.56,-1.47 0.09,-2.9 0.12,-5.8 -0.01,-8.7 -0.06,-1.49 0.58,-1.68 1.82,-1.67 9.18,0.03 18.36,-0.05 27.54,0.06 1.96,0.03 2.34,-0.6 2.33,-2.43 -0.05,-27.74 -0.06,-55.48 0.02,-83.22 0,-2.09 -0.63,-2.45 -2.54,-2.42 -7.87,0.11 -15.73,0.01 -23.6,0.08 -1.46,0.01 -1.9,-0.39 -1.84,-1.84 0.11,-2.76 0.08,-5.52 0.01,-8.28 -0.03,-1.19 0.21,-1.71 1.57,-1.7 12.22,0.05 24.43,0.06 36.65,-0.01 1.78,-0.01 1.58,1 1.58,2.11 -0.01,15.94 -0.01,31.88 -0.01,47.83z"/>
   </g>
  </g>
  <g id="_2857004404576">
   <g>
    <path class="fil0" d="M826.26 347.9c30.88,0 55.91,-25.03 55.91,-55.91 0,-30.88 -25.03,-55.91 -55.91,-55.91 -30.88,0 -55.91,25.03 -55.91,55.91 0,30.88 25.03,55.91 55.91,55.91z"/>
    <path class="fil0" d="M670.94 223.65c16.93,118.49 19.36,220.96 13.46,308.09 50.57,37.08 91.07,87.03 116.74,145.04 130.66,-198.03 143.16,-378.58 143.16,-378.58 -149.1,248.49 -273.36,-74.55 -273.36,-74.55z"/>
   </g>
   <g>
    <g>
     <path class="fil2" d="M472.15 211.23c48.04,0 86.98,-38.94 86.98,-86.98 0,-48.03 -38.94,-86.97 -86.98,-86.97 -48.03,0 -86.97,38.94 -86.97,86.97 0,48.04 38.94,86.98 86.97,86.98z"/>
    </g>
    <g>
     <path class="fil2" d="M604.24 487.44c33.42,-116.04 56.3,-275.6 41.86,-487.44 0,0 -167.74,627.46 -347.9,0 0,0 -33.86,237.2 43.52,486.36 40.3,-15.59 84.07,-24.22 129.87,-24.22 46.86,0 91.59,9.02 132.65,25.31z"/>
    </g>
   </g>
   <g>
    <path class="fil3" d="M118.04 347.9c30.88,0 55.91,-25.03 55.91,-55.91 0,-30.88 -25.03,-55.91 -55.91,-55.91 -30.89,0 -55.91,25.03 -55.91,55.91 0,30.88 25.02,55.91 55.91,55.91z"/>
    <path class="fil3" d="M259.85 530.99c-5.84,-86.97 -3.38,-189.18 13.5,-307.34 0,0 -124.25,323.04 -273.35,74.55 0,0 12.44,179.9 142.44,377.51 25.9,-57.94 66.64,-107.79 117.41,-144.72z"/>
   </g>
   <polygon class="fil5" points="207.88,1059.16 239.7,1054.62 207.88,1033.71 "/>
   <polygon class="fil5" points="803.38,931.88 776.1,945.52 789.74,904.6 "/>
   <g>
    <path class="fil1" d="M809.47 822.45c0,186.62 -151.27,337.89 -337.89,337.89 -186.61,0 -337.88,-151.27 -337.88,-337.89 0,-186.61 151.27,-337.87 337.88,-337.87 186.62,0 337.89,151.26 337.89,337.87z"/>
    <g>
     <g>
      <path class="fil2" d="M480.81 736.36c-5.07,-6.84 -7.36,-19.15 -5.1,-27.36l4.67 -16.93c2.26,-8.2 11.07,-14.92 19.58,-14.92l10.32 0c8.5,0 15.78,-6.96 16.14,-15.47l6.81 -155.9c0.24,-5.54 3.39,-10.77 7.89,-14.04 74.94,15.68 140.75,56.18 188.45,112.52 0.23,6.42 -1.05,13.31 -3.66,18.08l-22.5 41.22c-4.08,7.47 -14.37,14 -22.86,14.52l-110.11 6.71c-8.5,0.52 -18.39,7.26 -21.97,14.99l-9.31 20.07c-3.59,7.72 -12.35,17.86 -19.46,22.52l-10.23 6.69c-7.12,4.67 -17.09,2.89 -22.16,-3.94l-6.5 -8.76z"/>
      <path class="fil2" d="M511.96 777.88c-8.5,-0.55 -20.67,3.61 -27.05,9.25l-28.38 25.07c-6.39,5.63 -11.61,17.2 -11.61,25.71l0 49.01c0,8.52 6.07,18.9 13.48,23.09l52.15 29.48c7.41,4.19 19.96,10.16 27.87,13.29l36.55 14.44c7.92,3.12 15.69,12.51 17.29,20.87l7.29 38.38c1.59,8.37 0.53,21.76 -2.35,29.77l-19.78 55.13c-2.9,8 0.52,10.64 7.56,5.88l80.99 -54.87c7.05,-4.77 14.18,-15.51 15.85,-23.86l23.16 -115.81c1.67,-8.34 -0.69,-21.06 -5.25,-28.24l-60.81 -95.94c-4.56,-7.19 -15.24,-13.51 -23.73,-14.06l-103.24 -6.61z"/>
      <path class="fil2" d="M319.34 520.75c1.71,5.37 3.57,10.69 5.17,14.65l9.75 24.23c3.18,7.9 0.61,19.02 -5.69,24.73l-49.27 44.58c-6.31,5.71 -7.72,16.25 -3.16,23.45l19.49 30.63c4.57,7.18 3.37,17.96 -2.68,23.96l-39.94 39.67c-6.03,5.99 -17.91,11.59 -26.38,12.43l-77.53 7.69c-3.76,0.37 -7.39,-0.65 -10.37,-2.64 18.56,-106.64 87.1,-196.1 180.61,-243.38z"/>
      <path class="fil2" d="M245.1 792.24c-8.31,-1.82 -17.57,3.19 -20.57,11.15l-23.47 62.19c-3.01,7.96 -1.88,20.43 2.49,27.74l40.83 68.03c4.38,7.28 10.65,19.69 13.94,27.54l32.74 78.06c3.29,7.86 12.02,17.76 19.38,22.03l50.58 29.21c7.37,4.26 10.43,1.46 6.79,-6.25l-36.65 -77.7c-3.63,-7.7 -5.65,-20.89 -4.5,-29.33l11.27 -82.02c1.16,-8.44 0.46,-22.1 -1.53,-30.38l-16.82 -69.64c-1.99,-8.27 -10.42,-16.55 -18.74,-18.37l-55.75 -12.27z"/>
      <g>
       <path class="fil2" d="M481.9 658.67c0,4.98 -4.04,9.02 -9.02,9.02 -4.99,0 -9.03,-4.04 -9.03,-9.02 0,-4.99 4.04,-9.03 9.03,-9.03 4.98,0 9.02,4.04 9.02,9.03z"/>
       <path class="fil2" d="M487.06 639.32c-2.84,-2.35 -3.99,-10.68 -2.57,-18.48 1.42,-7.81 8.38,-16.71 15.47,-19.77 7.09,-3.08 14.25,-1.65 15.9,3.16 1.67,4.81 -1.55,14.01 -7.14,20.43l-6.35 7.29c-5.58,6.42 -12.47,9.75 -15.31,7.37z"/>
      </g>
      <path class="fil2" d="M772.82 975.63c0,0 -20.1,-155.76 -12.35,-171.23 4.18,-8.39 23.54,-35.26 40.38,-58.13 5.64,24.48 8.62,49.98 8.62,76.17 0,55.15 -13.22,107.2 -36.64,153.18l-0.01 0z"/>
     </g>
    </g>
   </g>
   <path class="fil0" d="M207.88 1059.16c0,0 209.11,-213.24 595.5,-127.28l27.28 -181.83c0,0 -427.31,-81.82 -718.24,145.47l95.46 163.64z"/>
   <g>
    <g>
     <path class="fil4" d="M284.22 854.24c16.27,28 24.03,42.17 38.74,70.81 0.36,0.7 0.4,1.42 0.14,2.16 -0.26,0.73 -0.76,1.29 -1.5,1.65 -6.63,3.27 -9.91,4.95 -16.41,8.4 -0.79,0.42 -1.56,0.51 -2.29,0.29 -0.73,-0.23 -1.3,-0.68 -1.68,-1.38 -4.93,-8.78 -7.43,-13.16 -12.51,-21.88 -0.39,-0.67 -1,-1.12 -1.8,-1.31 -0.79,-0.19 -1.57,-0.08 -2.32,0.33 -9.24,5.03 -13.81,7.62 -22.81,13 -0.8,0.48 -1.3,1.1 -1.47,1.84 -0.17,0.74 -0.04,1.45 0.38,2.1 5.48,8.47 8.19,12.72 13.52,21.26 0.41,0.67 0.52,1.39 0.33,2.14 -0.2,0.75 -0.65,1.35 -1.36,1.78 -6.24,3.78 -9.32,5.72 -15.44,9.69 -0.74,0.48 -1.5,0.64 -2.24,0.48 -0.75,-0.17 -1.35,-0.57 -1.79,-1.23 -18.04,-26.64 -27.43,-39.77 -46.95,-65.59 -0.47,-0.63 -0.63,-1.33 -0.46,-2.1 0.16,-0.77 0.67,-1.44 1.52,-1.99 6.9,-4.53 10.38,-6.74 17.43,-11.06 0.78,-0.48 1.62,-0.67 2.48,-0.56 0.86,0.12 1.53,0.5 1.97,1.15 6.41,9.16 9.57,13.76 15.79,23.01 0.44,0.65 1.06,1.06 1.85,1.23 0.78,0.16 1.6,-0.01 2.42,-0.5 9.28,-5.56 13.99,-8.26 23.53,-13.46 0.76,-0.42 1.29,-1.01 1.54,-1.77 0.26,-0.75 0.19,-1.48 -0.22,-2.15 -5.78,-9.54 -8.72,-14.28 -14.68,-23.74 -0.42,-0.66 -0.52,-1.37 -0.29,-2.13 0.24,-0.74 0.79,-1.36 1.7,-1.85 7.32,-3.93 11.02,-5.85 18.48,-9.59 0.83,-0.42 1.68,-0.53 2.53,-0.34 0.86,0.19 1.49,0.63 1.88,1.31z"/>
     <path class="fil4" d="M302.82 845.5c-0.38,-0.68 -0.41,-1.41 -0.08,-2.16 0.32,-0.75 0.91,-1.33 1.75,-1.71 7.63,-3.47 11.48,-5.16 19.23,-8.41 0.85,-0.36 1.71,-0.42 2.56,-0.17 0.84,0.24 1.44,0.71 1.8,1.42 8.56,17.17 12.69,25.8 20.71,43.16 1.28,2.79 2.84,4.88 4.67,6.3 1.83,1.42 3.72,2.35 5.65,2.81 1.94,0.46 3.85,0.56 5.71,0.34 1.87,-0.22 3.49,-0.58 4.85,-1.11 1.37,-0.51 2.81,-1.32 4.31,-2.38 1.51,-1.07 2.79,-2.39 3.81,-3.98 1.04,-1.58 1.69,-3.49 1.96,-5.71 0.27,-2.22 -0.16,-4.76 -1.33,-7.59 -7.23,-17.7 -10.99,-26.51 -18.79,-44.05 -0.32,-0.71 -0.28,-1.44 0.1,-2.16 0.39,-0.72 1.03,-1.25 1.91,-1.57 7.98,-2.84 12,-4.2 20.08,-6.82 0.9,-0.29 1.76,-0.27 2.59,0.04 0.82,0.31 1.39,0.83 1.69,1.57 7.15,17.8 10.59,26.74 17.19,44.7 1.93,5.25 2.71,10.31 2.4,15.2 -0.29,4.87 -1.6,9.36 -3.86,13.5 -2.27,4.14 -5.43,7.84 -9.43,11.11 -4.01,3.28 -8.8,5.95 -14.37,8.07 -5.58,2.12 -10.94,3.31 -16.17,3.54 -5.23,0.23 -10.11,-0.4 -14.68,-1.92 -4.59,-1.52 -8.76,-3.92 -12.53,-7.21 -3.78,-3.3 -6.95,-7.42 -9.47,-12.41 -8.63,-17.05 -13.09,-25.52 -22.26,-42.36z"/>
     <path class="fil4" d="M520.69 783.89c6.69,31.72 9.62,47.62 14.66,79.46 0.12,0.78 -0.07,1.48 -0.59,2.09 -0.51,0.61 -1.2,0.98 -2.05,1.08 -7.74,0.93 -11.61,1.44 -19.28,2.58 -0.85,0.13 -1.63,-0.03 -2.32,-0.48 -0.69,-0.45 -1.12,-1.06 -1.27,-1.84 -2.91,-14.91 -4.46,-22.35 -7.72,-37.22 -0.17,-0.76 -0.68,-1.14 -1.51,-1.08 -0.82,0.05 -1.44,0.43 -1.84,1.13 -6.26,13.98 -9.23,21 -14.89,35.11 -0.29,0.69 -0.9,1.13 -1.83,1.31 -0.94,0.18 -1.73,0.03 -2.38,-0.48 -11.58,-10.72 -17.6,-15.96 -30.07,-26.15 -0.61,-0.5 -1.31,-0.62 -2.07,-0.35 -0.77,0.26 -1.05,0.77 -0.81,1.53 4.38,14.57 6.48,21.88 10.5,36.51 0.2,0.76 0.09,1.48 -0.34,2.15 -0.42,0.66 -1.05,1.1 -1.86,1.3 -7.43,1.8 -11.12,2.76 -18.46,4.77 -0.81,0.22 -1.58,0.14 -2.3,-0.22 -0.73,-0.37 -1.22,-0.93 -1.45,-1.68 -9.64,-30.72 -14.85,-46.01 -26.08,-76.36 -0.28,-0.74 -0.2,-1.46 0.24,-2.16 0.44,-0.69 1.12,-1.18 2.03,-1.43 7.62,-2.15 11.46,-3.18 19.17,-5.13 0.92,-0.23 1.95,-0.24 3.11,-0.05 1.17,0.2 2.07,0.54 2.74,1.04 14.84,10.09 22,15.32 35.82,26.11 0.7,0.49 1.42,0.67 2.13,0.53 0.72,-0.15 1.23,-0.56 1.51,-1.27 6.97,-14.95 10.64,-22.38 18.37,-37.14 0.41,-0.7 1.08,-1.38 2,-2 0.94,-0.62 1.87,-1.01 2.82,-1.16 7.98,-1.24 11.98,-1.81 20.02,-2.84 0.96,-0.12 1.82,0.05 2.62,0.5 0.78,0.46 1.26,1.08 1.42,1.85z"/>
     <path class="fil4" d="M573.24 779.06c0.29,-0.72 0.86,-1.37 1.72,-1.92 0.86,-0.56 1.83,-0.86 2.92,-0.92 8.25,-0.37 12.38,-0.51 20.68,-0.67 1,-0.01 1.98,0.22 2.98,0.72 1,0.49 1.73,1.1 2.19,1.8 20.69,31.92 29.83,48.28 45.7,81.28 0.36,0.72 0.29,1.47 -0.2,2.23 -0.49,0.76 -1.45,1.11 -2.89,1.04 -9.18,-0.46 -13.76,-0.6 -22.88,-0.75 -0.99,-0.02 -1.9,-0.29 -2.77,-0.81 -0.88,-0.51 -1.54,-1.14 -2.01,-1.84 -1.57,-2.85 -2.36,-4.26 -3.97,-7.1 -0.49,-0.71 -1.17,-1.32 -2.06,-1.84 -0.88,-0.5 -1.78,-0.75 -2.68,-0.75 -11.41,0.04 -17.09,0.18 -28.38,0.69 -0.98,0.05 -1.87,0.34 -2.67,0.9 -0.78,0.55 -1.33,1.19 -1.61,1.91 -1.2,2.9 -1.8,4.35 -2.98,7.24 -0.28,0.72 -0.81,1.37 -1.59,1.92 -0.77,0.56 -1.6,0.86 -2.47,0.93 -9.01,0.56 -13.51,0.93 -22.44,1.78 -0.43,0.04 -0.91,0.01 -1.4,-0.1 -0.49,-0.11 -0.92,-0.3 -1.27,-0.58 -0.35,-0.28 -0.59,-0.64 -0.75,-1.12 -0.15,-0.45 -0.1,-1.01 0.15,-1.67 10.51,-33.14 16.25,-49.63 28.68,-82.36zm14.64 50.81l0 0c4.91,-0.17 7.36,-0.23 12.29,-0.32 0.93,-0.02 1.57,-0.28 1.94,-0.8 0.38,-0.51 0.3,-1.13 -0.22,-1.82 -1.09,-1.95 -2.39,-4.23 -3.95,-6.85 -1.55,-2.59 -3.01,-5.02 -4.37,-7.28 -0.44,-0.69 -0.92,-1.04 -1.38,-1.03 -0.47,0.02 -0.86,0.39 -1.17,1.11 -2.22,5.78 -3.32,8.68 -5.49,14.48 -0.29,0.72 -0.22,1.33 0.19,1.82 0.42,0.5 1.15,0.73 2.15,0.69z"/>
     <path class="fil4" d="M761.36 792.57c-2.68,32.5 -4.43,48.66 -8.72,80.78 -0.11,0.78 -0.52,1.38 -1.23,1.8 -0.71,0.41 -1.52,0.53 -2.42,0.34 -8.07,-1.63 -12.1,-2.38 -20.15,-3.76 -0.92,-0.16 -1.84,-0.56 -2.79,-1.2 -0.96,-0.63 -1.67,-1.31 -2.15,-2.03 -12.57,-19.62 -19.36,-29.32 -33.96,-48.32 -0.56,-0.69 -1.16,-1.02 -1.78,-0.97 -0.62,0.06 -0.95,0.48 -0.96,1.27 -0.32,16.99 -0.59,25.47 -1.36,42.38 -0.04,0.79 -0.39,1.43 -1.06,1.91 -0.65,0.48 -1.44,0.67 -2.34,0.58 -8.11,-0.83 -12.15,-1.19 -20.23,-1.77 -0.91,-0.07 -1.67,-0.4 -2.29,-1 -0.62,-0.59 -0.94,-1.29 -0.93,-2.08 0.32,-32.34 0.07,-48.56 -1.25,-81.08 -0.03,-0.78 0.29,-1.44 0.97,-1.95 0.67,-0.52 1.52,-0.74 2.52,-0.68 9.01,0.56 13.53,0.92 22.58,1.75 1.01,0.1 2.07,0.42 3.18,0.96 1.11,0.54 1.97,1.17 2.57,1.86 15.71,19.04 23.07,28.77 36.76,48.51 0.53,0.71 1.11,1.1 1.73,1.12 0.62,0.02 0.98,-0.36 1.04,-1.16 1.25,-16.95 1.76,-25.45 2.56,-42.49 0.04,-0.78 0.43,-1.41 1.16,-1.85 0.73,-0.45 1.61,-0.59 2.63,-0.43 8.98,1.44 13.49,2.23 22.49,3.94 1.01,0.19 1.85,0.64 2.51,1.34 0.66,0.69 0.97,1.44 0.9,2.22z"/>
    </g>
   </g>
  </g>
 </g>
</svg>
